<svg width="24" height="24" viewBox="0 0 24 24" fill="none" xmlns="http://www.w3.org/2000/svg">
<g clip-path="url(#clip0_1814_1123)">
<path d="M21.1885 10.2857H2.81136C2.56619 10.2836 2.32343 10.3342 2.09946 10.4339C1.87549 10.5336 1.67551 10.6802 1.51303 10.8638C1.35055 11.0474 1.22934 11.2638 1.15758 11.4982C1.08583 11.7327 1.06519 11.9798 1.09708 12.2228L2.3485 21.6514C2.4029 22.0664 2.60726 22.4472 2.92305 22.722C3.23884 22.9967 3.64423 23.1464 4.06279 23.1428H19.9028C20.3213 23.1464 20.7267 22.9967 21.0425 22.722C21.3583 22.4472 21.5627 22.0664 21.6171 21.6514L22.8685 12.2228C22.9 11.9826 22.8802 11.7384 22.8105 11.5064C22.7408 11.2744 22.6226 11.0597 22.4639 10.8767C22.3051 10.6937 22.1094 10.5463 21.8895 10.4445C21.6697 10.3426 21.4308 10.2885 21.1885 10.2857Z" stroke="#262626" stroke-width="1.71429" stroke-linecap="round" stroke-linejoin="round"/>
<path d="M7.71436 14.5714V18.8572" stroke="#262626" stroke-width="1.71429" stroke-linecap="round" stroke-linejoin="round"/>
<path d="M12 14.5714V18.8572" stroke="#262626" stroke-width="1.71429" stroke-linecap="round" stroke-linejoin="round"/>
<path d="M16.2856 14.5714V18.8572" stroke="#262626" stroke-width="1.71429" stroke-linecap="round" stroke-linejoin="round"/>
<path d="M16.2515 2.64001C17.2784 2.81742 18.2192 3.32537 18.9309 4.08659C19.6427 4.84782 20.0863 5.82066 20.1943 6.85716L20.5715 10.2857" stroke="#262626" stroke-width="1.71429" stroke-linecap="round" stroke-linejoin="round"/>
<path d="M3.42871 10.2857L3.80585 6.85714C3.92092 5.82679 4.36766 4.86173 5.0788 4.10731C5.78993 3.35289 6.72695 2.84996 7.74871 2.67429" stroke="#262626" stroke-width="1.71429" stroke-linecap="round" stroke-linejoin="round"/>
<path d="M16.2858 3C16.2858 3.28141 16.2304 3.56006 16.1227 3.82004C16.015 4.08002 15.8571 4.31625 15.6582 4.51523C15.4592 4.71422 15.2229 4.87206 14.963 4.97975C14.703 5.08743 14.4243 5.14286 14.1429 5.14286H9.85721C9.28889 5.14286 8.74385 4.9171 8.34198 4.51523C7.94012 4.11337 7.71436 3.56833 7.71436 3C7.71436 2.43168 7.94012 1.88664 8.34198 1.48478C8.74385 1.08291 9.28889 0.857147 9.85721 0.857147H14.1429C14.7112 0.857147 15.2563 1.08291 15.6582 1.48478C16.06 1.88664 16.2858 2.43168 16.2858 3Z" stroke="#262626" stroke-width="1.71429" stroke-linecap="round" stroke-linejoin="round"/>
</g>
<defs>
<clipPath id="clip0_1814_1123">
<rect width="24" height="24" fill="white"/>
</clipPath>
</defs>
</svg>
