<svg width="40" height="40" viewBox="0 0 40 40" fill="none" xmlns="http://www.w3.org/2000/svg">
<g clip-path="url(#clip0_1034_4778)">
<path d="M19.6286 27.1429C26.7294 27.1429 32.4858 21.3865 32.4858 14.2857C32.4858 7.18493 26.7294 1.42859 19.6286 1.42859C12.5278 1.42859 6.77148 7.18493 6.77148 14.2857C6.77148 21.3865 12.5278 27.1429 19.6286 27.1429Z" stroke="#FBB91A" stroke-width="2.85714" stroke-linecap="round" stroke-linejoin="round"/>
<path d="M19.6286 20C22.7845 20 25.3429 17.4416 25.3429 14.2857C25.3429 11.1298 22.7845 8.57141 19.6286 8.57141C16.4727 8.57141 13.9143 11.1298 13.9143 14.2857C13.9143 17.4416 16.4727 20 19.6286 20Z" stroke="#FBB91A" stroke-width="2.85714" stroke-linecap="round" stroke-linejoin="round"/>
<path d="M17.1429 26.9143L14.6287 37.4857C14.5789 37.6867 14.4869 37.8746 14.3588 38.0372C14.2307 38.1998 14.0695 38.3332 13.8858 38.4286C13.6919 38.5127 13.4829 38.5562 13.2715 38.5562C13.0602 38.5562 12.8511 38.5127 12.6572 38.4286L3.17151 34.2857C2.97255 34.1917 2.79747 34.0538 2.65943 33.8824C2.52138 33.711 2.42396 33.5105 2.37447 33.2961C2.32499 33.0816 2.32472 32.8587 2.37369 32.6442C2.42266 32.4296 2.5196 32.2289 2.65723 32.0572L10.0001 22.8572" stroke="#FBB91A" stroke-width="2.85714" stroke-linecap="round" stroke-linejoin="round"/>
<path d="M22.8572 26.7715L25.4286 37.4858C25.4797 37.6901 25.5754 37.8805 25.7088 38.0435C25.8421 38.2065 26.0099 38.338 26.2 38.4286C26.3886 38.5138 26.5931 38.5579 26.8 38.5579C27.0069 38.5579 27.2115 38.5138 27.4 38.4286L36.8286 34.2858C37.0306 34.1928 37.2081 34.054 37.3469 33.8804C37.4858 33.7068 37.5823 33.5032 37.6286 33.2858C37.6828 33.0731 37.6851 32.8505 37.6354 32.6367C37.5857 32.4229 37.4854 32.2242 37.3429 32.0572L29.6858 22.3143" stroke="#FBB91A" stroke-width="2.85714" stroke-linecap="round" stroke-linejoin="round"/>
</g>
<defs>
<clipPath id="clip0_1034_4778">
<rect width="40" height="40" fill="white"/>
</clipPath>
</defs>
</svg>
