<svg width="40" height="40" viewBox="0 0 40 40" fill="none" xmlns="http://www.w3.org/2000/svg">
<g clip-path="url(#clip0_1034_4841)">
<path d="M4.28561 38.5714C3.52785 38.5714 2.80112 38.2704 2.2653 37.7346C1.72949 37.1988 1.42847 36.4721 1.42847 35.7143V4.28573C1.42847 3.52797 1.72949 2.80124 2.2653 2.26543C2.80112 1.72961 3.52785 1.42859 4.28561 1.42859H35.7142C36.4719 1.42859 37.1987 1.72961 37.7345 2.26543C38.2703 2.80124 38.5713 3.52797 38.5713 4.28573V35.7143C38.5713 36.4721 38.2703 37.1988 37.7345 37.7346C37.1987 38.2704 36.4719 38.5714 35.7142 38.5714" stroke="#FBB91A" stroke-width="2.85714" stroke-linecap="round" stroke-linejoin="round"/>
<path d="M1.42847 10H38.5713" stroke="#FBB91A" stroke-width="2.85714" stroke-linecap="round" stroke-linejoin="round"/>
<path d="M18.4285 21.0572C18.5515 20.7404 18.7674 20.4682 19.0478 20.2762C19.3282 20.0843 19.6601 19.9816 19.9999 19.9816C20.3398 19.9816 20.6717 20.0843 20.9521 20.2762C21.2325 20.4682 21.4484 20.7404 21.5714 21.0572L23.3999 25.7143H28.2857C28.6051 25.7387 28.9114 25.8521 29.1696 26.0417C29.4279 26.2313 29.6279 26.4895 29.7469 26.787C29.8659 27.0844 29.8991 27.4093 29.8429 27.7247C29.7866 28.0401 29.643 28.3335 29.4285 28.5714L25.1142 32.4572L26.9428 36.1143C27.1083 36.4354 27.1644 36.8017 27.1025 37.1576C27.0406 37.5135 26.8641 37.8394 26.5999 38.0857C26.3375 38.3352 26.004 38.4967 25.6456 38.5479C25.2871 38.5991 24.9217 38.5375 24.5999 38.3714L19.9999 35.8572L15.3999 38.3714C15.0782 38.5375 14.7127 38.5991 14.3543 38.5479C13.9959 38.4967 13.6623 38.3352 13.3999 38.0857C13.1357 37.8394 12.9593 37.5135 12.8974 37.1576C12.8355 36.8017 12.8916 36.4354 13.0571 36.1143L14.8857 32.4572L10.5714 28.5714C10.3568 28.3335 10.2133 28.0401 10.157 27.7247C10.1007 27.4093 10.134 27.0844 10.253 26.787C10.372 26.4895 10.572 26.2313 10.8302 26.0417C11.0885 25.8521 11.3948 25.7387 11.7142 25.7143H16.5999L18.4285 21.0572Z" stroke="#FBB91A" stroke-width="2.85714" stroke-linecap="round" stroke-linejoin="round"/>
</g>
<defs>
<clipPath id="clip0_1034_4841">
<rect width="40" height="40" fill="white"/>
</clipPath>
</defs>
</svg>
