<svg width="40" height="40" viewBox="0 0 40 40" fill="none" xmlns="http://www.w3.org/2000/svg">
<g clip-path="url(#clip0_1026_4556)">
<path d="M4.28561 17.1428H7.14275C7.52163 17.1428 7.885 17.2933 8.1529 17.5612C8.42081 17.8292 8.57132 18.1925 8.57132 18.5714V25.7143C8.57132 26.0931 8.42081 26.4565 8.1529 26.7244C7.885 26.9923 7.52163 27.1428 7.14275 27.1428H4.28561C3.52785 27.1428 2.80112 26.8418 2.2653 26.306C1.72949 25.7702 1.42847 25.0434 1.42847 24.2857V20C1.42847 19.2422 1.72949 18.5155 2.2653 17.9797C2.80112 17.4438 3.52785 17.1428 4.28561 17.1428Z" stroke="#FBB91A" stroke-width="2.85714" stroke-linecap="round" stroke-linejoin="round"/>
<path d="M35.7141 27.1428H32.857C32.4781 27.1428 32.1148 26.9923 31.8468 26.7244C31.5789 26.4565 31.4284 26.0931 31.4284 25.7143V18.5714C31.4284 18.1925 31.5789 17.8291 31.8468 17.5612C32.1148 17.2933 32.4781 17.1428 32.857 17.1428H35.7141C36.4719 17.1428 37.1986 17.4438 37.7345 17.9797C38.2703 18.5155 38.5713 19.2422 38.5713 20V24.2857C38.5713 25.0434 38.2703 25.7702 37.7345 26.306C37.1986 26.8418 36.4719 27.1428 35.7141 27.1428Z" stroke="#FBB91A" stroke-width="2.85714" stroke-linecap="round" stroke-linejoin="round"/>
<path d="M27.1428 35C28.6583 35 30.1118 34.3979 31.1834 33.3263C32.2551 32.2547 32.8571 30.8012 32.8571 29.2857V27.1428" stroke="#FBB91A" stroke-width="2.85714" stroke-linecap="round" stroke-linejoin="round"/>
<path d="M23.5713 31.4286C24.5185 31.4286 25.4269 31.8049 26.0966 32.4746C26.7664 33.1444 27.1427 34.0528 27.1427 35C27.1427 35.9472 26.7664 36.8556 26.0966 37.5254C25.4269 38.1952 24.5185 38.5714 23.5713 38.5714H19.2855C18.3383 38.5714 17.4299 38.1952 16.7602 37.5254C16.0904 36.8556 15.7141 35.9472 15.7141 35C15.7141 34.0528 16.0904 33.1444 16.7602 32.4746C17.4299 31.8049 18.3383 31.4286 19.2855 31.4286H23.5713Z" stroke="#FBB91A" stroke-width="2.85714" stroke-linecap="round" stroke-linejoin="round"/>
<path d="M7.14282 17.1429V14.2857C7.14282 10.8758 8.49741 7.60554 10.9086 5.19436C13.3198 2.78318 16.59 1.42859 20 1.42859C23.4099 1.42859 26.6802 2.78318 29.0913 5.19436C31.5025 7.60554 32.8571 10.8758 32.8571 14.2857V17.1429" stroke="#FBB91A" stroke-width="2.85714" stroke-linecap="round" stroke-linejoin="round"/>
<path d="M15.7141 11.4286V15.7143" stroke="#FBB91A" stroke-width="2.85714" stroke-linecap="round" stroke-linejoin="round"/>
<path d="M24.2856 11.4286V15.7143" stroke="#FBB91A" stroke-width="2.85714" stroke-linecap="round" stroke-linejoin="round"/>
<path d="M15.7141 21.4286C15.7141 25.2286 24.2855 25.2286 24.2855 21.4286" stroke="#FBB91A" stroke-width="2.85714" stroke-linecap="round" stroke-linejoin="round"/>
</g>
<defs>
<clipPath id="clip0_1026_4556">
<rect width="40" height="40" fill="white"/>
</clipPath>
</defs>
</svg>
