<svg width="40" height="40" viewBox="0 0 40 40" fill="none" xmlns="http://www.w3.org/2000/svg">
<g clip-path="url(#clip0_1034_4822)">
<path d="M20 28.6287V31.5144" stroke="#FBB91A" stroke-width="2.85714" stroke-linecap="round" stroke-linejoin="round"/>
<path d="M20 14.3143V17" stroke="#FBB91A" stroke-width="2.85714" stroke-linecap="round" stroke-linejoin="round"/>
<path d="M20 38.5429C30 38.5429 37.1429 35 37.1429 27.1143C37.1429 18.5429 32.8572 12.8286 24.2857 8.5429L27.6572 4.20004C27.8285 3.9151 27.9214 3.58994 27.9265 3.25752C27.9316 2.9251 27.8487 2.59724 27.6863 2.30717C27.5238 2.0171 27.2876 1.77513 27.0015 1.60579C26.7154 1.43645 26.3896 1.34575 26.0572 1.3429H13.9429C13.6104 1.34575 13.2847 1.43645 12.9986 1.60579C12.7125 1.77513 12.4762 2.0171 12.3138 2.30717C12.1514 2.59724 12.0685 2.9251 12.0736 3.25752C12.0787 3.58994 12.1716 3.9151 12.3429 4.20004L15.7143 8.57147C7.14289 12.8858 2.85718 18.6 2.85718 27.1715C2.85718 35 10 38.5429 20 38.5429Z" stroke="#FBB91A" stroke-width="2.85714" stroke-linecap="round" stroke-linejoin="round"/>
<path d="M17.143 27.3143C17.4916 27.7281 17.9303 28.0566 18.4256 28.2745C18.9209 28.4924 19.4595 28.594 20.0001 28.5715C20.8264 28.6278 21.6424 28.3616 22.2764 27.8287C22.9105 27.2959 23.3133 26.538 23.4001 25.7143C23.3133 24.8907 22.9105 24.1328 22.2764 23.5999C21.6424 23.0671 20.8264 22.8009 20.0001 22.8572C19.1738 22.9135 18.3578 22.6473 17.7238 22.1144C17.0897 21.5816 16.6869 20.8237 16.6001 20C16.6799 19.1735 17.0808 18.4112 17.7165 17.877C18.3522 17.3428 19.1722 17.0792 20.0001 17.1429C20.5312 17.1104 21.0629 17.196 21.5569 17.3937C22.051 17.5913 22.4951 17.8959 22.8572 18.2858" stroke="#FBB91A" stroke-width="2.85714" stroke-linecap="round" stroke-linejoin="round"/>
</g>
<defs>
<clipPath id="clip0_1034_4822">
<rect width="40" height="40" fill="white"/>
</clipPath>
</defs>
</svg>
