<svg width="719" height="929" viewBox="0 0 719 929" fill="none" xmlns="http://www.w3.org/2000/svg">
<path fill-rule="evenodd" clip-rule="evenodd" d="M192 1054C-99.0546 1054 -335 818.055 -335 527C-335 235.945 -99.0546 0 192 0C483.055 0 719 235.945 719 527C719 818.055 483.055 1054 192 1054ZM192 1016.36C462.265 1016.36 681.357 797.265 681.357 527C681.357 256.735 462.265 37.6429 192 37.6429C-78.265 37.6429 -297.357 256.735 -297.357 527C-297.357 797.265 -78.265 1016.36 192 1016.36Z" fill="#E1C5B4"/>
<path fill-rule="evenodd" clip-rule="evenodd" d="M-215.821 346.815C-193.267 292.879 -160.905 261.527 -152.166 252.66C-143.428 243.798 -131.022 248.121 -122.714 252.66C-114.405 257.204 93.8565 465.804 103.154 476.28C112.447 486.755 122.298 502.383 95.6204 502.383C68.937 502.383 -193.197 500.092 -215.821 498.532C-238.449 496.967 -245.128 483.771 -245.128 472.499C-245.128 461.228 -238.379 400.758 -215.821 346.815ZM36.1285 114.758C90.2213 92.5647 128.784 94.0221 141.233 93.936C153.682 93.85 159.393 105.675 162.06 114.758C164.722 123.846 166.658 420.391 165.824 434.367C164.985 448.349 165.217 463.852 146.352 444.983C127.482 426.118 -56.2578 239.141 -71.1483 222.04C-86.0441 204.934 -81.4355 190.877 -73.4606 182.908C-65.4911 174.938 -17.9643 136.956 36.1339 114.758H36.1285ZM366.805 119.184C420.742 141.737 452.093 174.099 460.96 182.838C469.823 191.576 465.499 203.982 460.96 212.291C456.416 220.599 247.816 428.861 237.34 438.158C226.865 447.451 211.238 457.303 211.238 430.625C211.238 403.941 213.529 141.807 215.088 119.184C216.653 96.5549 229.849 89.876 241.121 89.876C252.392 89.876 312.863 96.6248 366.805 119.184ZM598.862 371.133C621.056 425.225 619.598 463.788 619.684 476.237C619.77 488.686 607.945 494.397 598.862 497.064C589.774 499.726 293.229 501.662 279.253 500.828C265.271 499.99 249.768 500.221 268.638 481.356C287.502 462.486 474.48 278.746 491.58 263.856C508.686 248.96 522.743 253.569 530.713 261.544C538.682 269.513 576.664 317.04 598.862 371.138V371.133ZM594.437 707.187C571.883 761.123 539.521 792.475 530.783 801.342C522.044 810.204 509.638 805.881 501.33 801.342C493.021 796.798 284.76 588.198 275.462 577.722C266.169 567.247 256.318 551.619 282.996 551.619C309.679 551.619 571.813 553.91 594.437 555.47C617.065 557.035 623.744 570.231 623.744 581.502C623.744 592.774 616.995 653.244 594.437 707.187ZM342.488 939.244C288.395 961.437 249.832 959.98 237.383 960.066C224.934 960.152 219.223 948.327 216.556 939.244C213.894 930.156 211.958 633.611 212.792 619.635C213.631 605.653 213.4 590.15 232.264 609.019C251.134 627.884 434.874 814.861 449.764 831.962C464.66 849.068 460.052 863.125 452.077 871.094C444.107 879.064 396.58 917.046 342.482 939.244H342.488ZM11.8112 934.818C-42.1256 912.265 -73.4767 879.903 -82.3443 871.164C-91.2065 862.426 -86.883 850.02 -82.3443 841.711C-77.8003 833.403 130.8 625.141 141.276 615.844C151.751 606.551 167.378 596.699 167.378 623.377C167.378 650.061 165.088 912.195 163.528 934.818C161.963 957.447 148.767 964.126 137.495 964.126C126.224 964.126 65.7534 957.377 11.8112 934.818ZM-220.246 682.869C-242.439 628.777 -240.982 590.214 -241.068 577.765C-241.154 565.316 -229.329 559.605 -220.246 556.938C-211.158 554.276 85.3869 552.34 99.3632 553.174C113.345 554.012 128.848 553.781 109.978 572.646C91.114 591.516 -95.8635 775.256 -112.964 790.146C-130.07 805.042 -144.127 800.433 -152.097 792.458C-160.066 784.489 -198.048 736.962 -220.246 682.864V682.869Z" fill="#E1C5B4"/>
</svg>
