<svg width="32" height="32" viewBox="0 0 32 32" fill="none" xmlns="http://www.w3.org/2000/svg">
<path fill-rule="evenodd" clip-rule="evenodd" d="M16 31.3125C7.54313 31.3125 0.6875 24.4569 0.6875 16C0.6875 7.54313 7.54313 0.6875 16 0.6875C24.4569 0.6875 31.3125 7.54313 31.3125 16C31.3125 24.4569 24.4569 31.3125 16 31.3125ZM16 30.2188C23.8528 30.2188 30.2188 23.8528 30.2188 16C30.2188 8.14719 23.8528 1.78125 16 1.78125C8.14719 1.78125 1.78125 8.14719 1.78125 16C1.78125 23.8528 8.14719 30.2188 16 30.2188Z" fill="#A1BEAC"/>
<path fill-rule="evenodd" clip-rule="evenodd" d="M4.15048 10.7645C4.80579 9.19734 5.74611 8.2864 6.00001 8.02875C6.25392 7.77125 6.61439 7.89687 6.85579 8.02875C7.0972 8.16078 13.1484 14.2219 13.4186 14.5262C13.6886 14.8306 13.9749 15.2847 13.1997 15.2847C12.4244 15.2847 4.80783 15.2181 4.15048 15.1728C3.49298 15.1273 3.29892 14.7439 3.29892 14.4164C3.29892 14.0889 3.49501 12.3319 4.15048 10.7645ZM11.4711 4.02187C13.0428 3.37703 14.1633 3.41937 14.525 3.41687C14.8867 3.41437 15.0527 3.75797 15.1302 4.02187C15.2075 4.28594 15.2638 12.9023 15.2395 13.3084C15.2152 13.7147 15.2219 14.1652 14.6738 13.6169C14.1255 13.0687 8.78673 7.63594 8.35408 7.13906C7.92126 6.64203 8.05517 6.23359 8.28689 6.00203C8.51845 5.77047 9.89939 4.66687 11.4713 4.02187H11.4711ZM21.0792 4.15047C22.6464 4.80578 23.5574 5.74609 23.815 6C24.0725 6.2539 23.9469 6.61437 23.815 6.85578C23.683 7.09719 17.6219 13.1484 17.3175 13.4186C17.0131 13.6886 16.5591 13.9748 16.5591 13.1997C16.5591 12.4244 16.6256 4.80781 16.671 4.15047C16.7164 3.49297 17.0999 3.2989 17.4274 3.2989C17.7549 3.2989 19.5119 3.495 21.0792 4.15047ZM27.8219 11.4711C28.4667 13.0428 28.4244 14.1633 28.4269 14.525C28.4294 14.8867 28.0858 15.0527 27.8219 15.1302C27.5578 15.2075 18.9414 15.2637 18.5353 15.2395C18.1291 15.2152 17.6786 15.2219 18.2269 14.6737C18.775 14.1255 24.2078 8.78672 24.7047 8.35406C25.2017 7.92125 25.6102 8.05515 25.8417 8.28687C26.0733 8.51844 27.1769 9.89937 27.8219 11.4712V11.4711ZM27.6933 21.2355C27.038 22.8027 26.0977 23.7136 25.8438 23.9712C25.5899 24.2288 25.2294 24.1031 24.988 23.9712C24.7466 23.8392 18.6953 17.7781 18.4252 17.4737C18.1552 17.1694 17.8689 16.7153 18.6441 16.7153C19.4194 16.7153 27.036 16.7819 27.6933 16.8272C28.3508 16.8727 28.5449 17.2561 28.5449 17.5836C28.5449 17.9111 28.3488 19.6681 27.6933 21.2355ZM20.3727 27.9781C18.801 28.623 17.6805 28.5806 17.3188 28.5831C16.957 28.5856 16.7911 28.242 16.7136 27.9781C16.6363 27.7141 16.58 19.0977 16.6042 18.6916C16.6286 18.2853 16.6219 17.8348 17.17 18.3831C17.7183 18.9312 23.057 24.3641 23.4897 24.8609C23.9225 25.358 23.7886 25.7664 23.5569 25.998C23.3253 26.2295 21.9444 27.3331 20.3725 27.9781H20.3727ZM10.7645 27.8495C9.19736 27.1942 8.28642 26.2539 8.02876 26C7.77126 25.7461 7.89689 25.3856 8.02876 25.1442C8.16079 24.9028 14.2219 18.8516 14.5263 18.5814C14.8306 18.3114 15.2847 18.0252 15.2847 18.8003C15.2847 19.5756 15.2181 27.1922 15.1728 27.8495C15.1274 28.507 14.7439 28.7011 14.4164 28.7011C14.0889 28.7011 12.3319 28.505 10.7645 27.8495ZM4.02189 20.5289C3.37704 18.9572 3.41939 17.8367 3.41689 17.475C3.41439 17.1133 3.75798 16.9473 4.02189 16.8698C4.28595 16.7925 12.9024 16.7362 13.3085 16.7605C13.7147 16.7848 14.1652 16.7781 13.6169 17.3263C13.0688 17.8745 7.63595 23.2133 7.13908 23.6459C6.64204 24.0787 6.23361 23.9448 6.00204 23.7131C5.77048 23.4816 4.66689 22.1006 4.02189 20.5287V20.5289Z" fill="#A1BEAC"/>
</svg>
