<svg width="112" height="66" viewBox="0 0 112 66" fill="none" xmlns="http://www.w3.org/2000/svg">
<path d="M6.756 12V3.6H10.704C11.272 3.6 11.768 3.696 12.192 3.888C12.616 4.08 12.948 4.352 13.188 4.704C13.428 5.048 13.548 5.448 13.548 5.904C13.548 6.272 13.452 6.612 13.26 6.924C13.076 7.228 12.824 7.476 12.504 7.668C12.912 7.86 13.236 8.12 13.476 8.448C13.716 8.776 13.836 9.148 13.836 9.564C13.836 10.044 13.712 10.468 13.464 10.836C13.224 11.204 12.88 11.492 12.432 11.7C11.992 11.9 11.48 12 10.896 12H6.756ZM8.496 7.032H10.596C10.972 7.032 11.268 6.944 11.484 6.768C11.708 6.584 11.82 6.34 11.82 6.036C11.82 5.732 11.708 5.492 11.484 5.316C11.268 5.132 10.972 5.04 10.596 5.04H8.496V7.032ZM8.496 10.56H10.764C11.164 10.56 11.484 10.464 11.724 10.272C11.964 10.072 12.084 9.808 12.084 9.48C12.084 9.144 11.964 8.88 11.724 8.688C11.484 8.488 11.164 8.388 10.764 8.388H8.496V10.56ZM14.9449 12V5.748H16.5889V6.444C16.7889 6.172 17.0289 5.964 17.3089 5.82C17.5889 5.676 17.9049 5.604 18.2569 5.604C18.5609 5.612 18.7889 5.66 18.9409 5.748V7.188C18.8209 7.132 18.6889 7.092 18.5449 7.068C18.4009 7.036 18.2529 7.02 18.1009 7.02C17.7809 7.02 17.4889 7.1 17.2249 7.26C16.9609 7.42 16.7489 7.648 16.5889 7.944V12H14.9449ZM22.6452 12.12C22.0212 12.12 21.4572 11.976 20.9532 11.688C20.4492 11.4 20.0492 11.012 19.7532 10.524C19.4572 10.036 19.3092 9.488 19.3092 8.88C19.3092 8.272 19.4532 7.724 19.7412 7.236C20.0372 6.74 20.4372 6.348 20.9412 6.06C21.4532 5.772 22.0212 5.628 22.6452 5.628C23.2692 5.628 23.8332 5.772 24.3372 6.06C24.8492 6.348 25.2492 6.74 25.5372 7.236C25.8332 7.724 25.9812 8.272 25.9812 8.88C25.9812 9.488 25.8332 10.036 25.5372 10.524C25.2492 11.012 24.8532 11.4 24.3492 11.688C23.8452 11.976 23.2772 12.12 22.6452 12.12ZM22.6452 10.692C22.9732 10.692 23.2652 10.612 23.5212 10.452C23.7852 10.292 23.9932 10.076 24.1452 9.804C24.3052 9.524 24.3852 9.216 24.3852 8.88C24.3852 8.536 24.3052 8.228 24.1452 7.956C23.9932 7.684 23.7852 7.468 23.5212 7.308C23.2652 7.14 22.9732 7.056 22.6452 7.056C22.3252 7.056 22.0332 7.14 21.7692 7.308C21.5052 7.468 21.2972 7.684 21.1452 7.956C20.9932 8.228 20.9172 8.536 20.9172 8.88C20.9172 9.216 20.9932 9.524 21.1452 9.804C21.2972 10.076 21.5052 10.292 21.7692 10.452C22.0332 10.612 22.3252 10.692 22.6452 10.692ZM29.4158 12.12C28.9358 12.12 28.5078 12.016 28.1318 11.808C27.7638 11.592 27.4718 11.296 27.2558 10.92C27.0478 10.544 26.9438 10.112 26.9438 9.624V5.748H28.5878V9.384C28.5878 9.784 28.7038 10.104 28.9358 10.344C29.1758 10.584 29.4958 10.704 29.8958 10.704C30.1678 10.704 30.4118 10.652 30.6278 10.548C30.8518 10.436 31.0358 10.28 31.1798 10.08V5.748H32.8238V12H31.1798V11.496C30.6998 11.912 30.1118 12.12 29.4158 12.12ZM37.249 14.568C36.769 14.568 36.305 14.516 35.857 14.412C35.409 14.316 35.005 14.176 34.645 13.992L35.221 12.72C35.565 12.888 35.901 13.012 36.229 13.092C36.557 13.172 36.885 13.212 37.213 13.212C37.701 13.212 38.069 13.108 38.317 12.9C38.573 12.692 38.701 12.38 38.701 11.964V11.472C38.189 11.848 37.617 12.036 36.985 12.036C36.393 12.036 35.857 11.896 35.377 11.616C34.905 11.328 34.525 10.94 34.237 10.452C33.957 9.964 33.817 9.424 33.817 8.832C33.817 8.24 33.957 7.704 34.237 7.224C34.525 6.744 34.913 6.364 35.401 6.084C35.889 5.796 36.433 5.652 37.033 5.652C37.337 5.652 37.633 5.696 37.921 5.784C38.209 5.872 38.477 5.996 38.725 6.156V5.748H40.345V11.988C40.345 12.812 40.077 13.448 39.541 13.896C39.013 14.344 38.249 14.568 37.249 14.568ZM37.237 10.644C37.541 10.644 37.817 10.596 38.065 10.5C38.313 10.396 38.525 10.252 38.701 10.068V7.62C38.525 7.444 38.309 7.308 38.053 7.212C37.805 7.108 37.537 7.056 37.249 7.056C36.905 7.056 36.597 7.136 36.325 7.296C36.053 7.448 35.837 7.66 35.677 7.932C35.517 8.196 35.437 8.496 35.437 8.832C35.437 9.176 35.513 9.484 35.665 9.756C35.825 10.028 36.041 10.244 36.313 10.404C36.593 10.564 36.901 10.644 37.237 10.644ZM41.6285 12V3.6L43.2725 3.24V6.264C43.7445 5.84 44.3285 5.628 45.0245 5.628C45.5125 5.628 45.9405 5.736 46.3085 5.952C46.6845 6.16 46.9765 6.452 47.1845 6.828C47.3925 7.196 47.4965 7.628 47.4965 8.124V12H45.8525V8.364C45.8525 7.956 45.7365 7.636 45.5045 7.404C45.2725 7.164 44.9565 7.044 44.5565 7.044C44.2765 7.044 44.0285 7.1 43.8125 7.212C43.5965 7.316 43.4165 7.468 43.2725 7.668V12H41.6285ZM51.53 12.096C50.834 12.096 50.306 11.94 49.946 11.628C49.594 11.308 49.418 10.844 49.418 10.236V7.116H48.134V5.748H49.418V4.152L51.062 3.78V5.748H52.85V7.116H51.062V9.9C51.062 10.188 51.126 10.396 51.254 10.524C51.382 10.644 51.606 10.704 51.926 10.704C52.086 10.704 52.23 10.696 52.358 10.68C52.494 10.656 52.642 10.616 52.802 10.56V11.916C52.634 11.972 52.422 12.016 52.166 12.048C51.918 12.08 51.706 12.096 51.53 12.096ZM59.03 12.096C58.334 12.096 57.806 11.94 57.446 11.628C57.094 11.308 56.918 10.844 56.918 10.236V7.116H55.634V5.748H56.918V4.152L58.562 3.78V5.748H60.35V7.116H58.562V9.9C58.562 10.188 58.626 10.396 58.754 10.524C58.882 10.644 59.106 10.704 59.426 10.704C59.586 10.704 59.73 10.696 59.858 10.68C59.994 10.656 60.142 10.616 60.302 10.56V11.916C60.134 11.972 59.922 12.016 59.666 12.048C59.418 12.08 59.206 12.096 59.03 12.096ZM64.1296 12.12C63.5056 12.12 62.9416 11.976 62.4376 11.688C61.9336 11.4 61.5336 11.012 61.2376 10.524C60.9416 10.036 60.7936 9.488 60.7936 8.88C60.7936 8.272 60.9376 7.724 61.2256 7.236C61.5216 6.74 61.9216 6.348 62.4256 6.06C62.9376 5.772 63.5056 5.628 64.1296 5.628C64.7536 5.628 65.3176 5.772 65.8216 6.06C66.3336 6.348 66.7336 6.74 67.0216 7.236C67.3176 7.724 67.4656 8.272 67.4656 8.88C67.4656 9.488 67.3176 10.036 67.0216 10.524C66.7336 11.012 66.3376 11.4 65.8336 11.688C65.3296 11.976 64.7616 12.12 64.1296 12.12ZM64.1296 10.692C64.4576 10.692 64.7496 10.612 65.0056 10.452C65.2696 10.292 65.4776 10.076 65.6296 9.804C65.7896 9.524 65.8696 9.216 65.8696 8.88C65.8696 8.536 65.7896 8.228 65.6296 7.956C65.4776 7.684 65.2696 7.468 65.0056 7.308C64.7496 7.14 64.4576 7.056 64.1296 7.056C63.8096 7.056 63.5176 7.14 63.2536 7.308C62.9896 7.468 62.7816 7.684 62.6296 7.956C62.4776 8.228 62.4016 8.536 62.4016 8.88C62.4016 9.216 62.4776 9.524 62.6296 9.804C62.7816 10.076 62.9896 10.292 63.2536 10.452C63.5176 10.612 63.8096 10.692 64.1296 10.692ZM70.8902 12V3.6L72.5342 3.324V6.252C73.0302 5.86 73.6142 5.664 74.2862 5.664C74.8782 5.664 75.4142 5.808 75.8942 6.096C76.3742 6.384 76.7542 6.772 77.0342 7.26C77.3222 7.74 77.4662 8.28 77.4662 8.88C77.4662 9.48 77.3222 10.024 77.0342 10.512C76.7462 10.992 76.3582 11.376 75.8702 11.664C75.3822 11.944 74.8382 12.084 74.2382 12.084C73.9262 12.084 73.6222 12.04 73.3262 11.952C73.0302 11.864 72.7582 11.736 72.5102 11.568V12H70.8902ZM74.0222 10.692C74.3662 10.692 74.6742 10.612 74.9462 10.452C75.2262 10.292 75.4462 10.076 75.6062 9.804C75.7662 9.532 75.8462 9.224 75.8462 8.88C75.8462 8.536 75.7662 8.228 75.6062 7.956C75.4462 7.676 75.2262 7.46 74.9462 7.308C74.6742 7.148 74.3662 7.068 74.0222 7.068C73.7182 7.068 73.4382 7.12 73.1822 7.224C72.9342 7.32 72.7182 7.468 72.5342 7.668V10.104C72.7102 10.288 72.9262 10.432 73.1822 10.536C73.4462 10.64 73.7262 10.692 74.0222 10.692ZM78.8967 14.58C78.7527 14.58 78.6127 14.572 78.4767 14.556C78.3487 14.548 78.2407 14.536 78.1527 14.52V13.104C78.3127 13.136 78.5047 13.152 78.7287 13.152C79.3287 13.152 79.7447 12.868 79.9767 12.3L80.0727 12.06L77.6367 5.748H79.4487L81.0087 10.008L82.7727 5.748H84.5487L81.6687 12.504C81.4527 13.008 81.2167 13.412 80.9607 13.716C80.7047 14.02 80.4087 14.24 80.0727 14.376C79.7447 14.512 79.3527 14.58 78.8967 14.58Z" fill="white"/>
<g filter="url(#filter0_d_987_4792)">
<rect width="88.3333" height="27.9722" transform="translate(6 26.1951)" fill="#FFB400"/>
<path d="M31.7492 45.759C31.0425 45.759 30.3899 45.6707 29.7912 45.494C29.1924 45.3076 28.6723 45.0426 28.2306 44.699L29.2317 43.3593C29.6734 43.6538 30.0954 43.8746 30.4978 44.0218C30.91 44.169 31.3174 44.2426 31.7198 44.2426C32.1712 44.2426 32.5295 44.169 32.7945 44.0218C33.0693 43.8648 33.2067 43.6636 33.2067 43.4182C33.2067 43.2219 33.1282 43.0649 32.9712 42.9471C32.8239 42.8293 32.5835 42.7459 32.2498 42.6968L30.7775 42.476C30.012 42.3582 29.4329 42.1128 29.0403 41.7399C28.6477 41.3571 28.4514 40.8565 28.4514 40.2382C28.4514 39.7376 28.579 39.3107 28.8342 38.9574C29.0992 38.5942 29.4673 38.3145 29.9384 38.1182C30.4193 37.9121 30.9886 37.809 31.6462 37.809C32.2056 37.809 32.7503 37.8876 33.2803 38.0446C33.8201 38.2016 34.3256 38.4421 34.7967 38.766L33.825 40.0763C33.403 39.8113 33.0006 39.6199 32.6178 39.5021C32.235 39.3843 31.8474 39.3254 31.4548 39.3254C31.0916 39.3254 30.7972 39.3941 30.5714 39.5315C30.3555 39.6689 30.2475 39.8505 30.2475 40.0763C30.2475 40.2824 30.3261 40.4443 30.4831 40.5621C30.6401 40.6799 30.91 40.7633 31.2928 40.8124L32.7503 41.0332C33.5159 41.1412 34.0999 41.3865 34.5023 41.7693C34.9047 42.1423 35.1059 42.6281 35.1059 43.2268C35.1059 43.7176 34.9587 44.1543 34.6642 44.5371C34.3698 44.9101 33.9723 45.2094 33.4717 45.4351C32.9712 45.6511 32.397 45.759 31.7492 45.759ZM39.9361 45.759C39.1706 45.759 38.4737 45.5824 37.8456 45.229C37.2273 44.8757 36.7365 44.3997 36.3734 43.801C36.0102 43.2023 35.8286 42.53 35.8286 41.784C35.8286 41.0381 36.0004 40.3658 36.3439 39.7671C36.6973 39.1684 37.1733 38.6924 37.772 38.339C38.3707 37.9857 39.0381 37.809 39.7742 37.809C40.5103 37.809 41.163 37.9906 41.7323 38.3538C42.3015 38.7169 42.7481 39.2076 43.072 39.826C43.4057 40.4443 43.5725 41.1461 43.5725 41.9313V42.4613H37.8898C37.9781 42.7655 38.1204 43.0403 38.3167 43.2857C38.5228 43.5311 38.7731 43.7225 39.0675 43.8599C39.3718 43.9973 39.6957 44.066 40.0392 44.066C40.3827 44.066 40.6968 44.012 40.9814 43.904C41.2759 43.7961 41.5261 43.6439 41.7323 43.4476L43.0573 44.6549C42.5861 45.0376 42.1003 45.3174 41.5998 45.494C41.109 45.6707 40.5545 45.759 39.9361 45.759ZM37.8603 41.0185H41.585C41.5163 40.7142 41.3887 40.4492 41.2023 40.2235C41.0256 39.9879 40.8097 39.8064 40.5545 39.6788C40.3091 39.5414 40.0343 39.4726 39.73 39.4726C39.416 39.4726 39.1313 39.5364 38.8761 39.664C38.621 39.7916 38.405 39.9732 38.2284 40.2088C38.0615 40.4345 37.9388 40.7044 37.8603 41.0185ZM44.8083 45.6118V37.9415H46.8252V38.5746C47.4043 38.0544 48.1208 37.7943 48.9747 37.7943C49.5734 37.7943 50.0985 37.9268 50.5499 38.1918C51.0112 38.447 51.3695 38.8052 51.6247 39.2665C51.8799 39.718 52.0074 40.248 52.0074 40.8565V45.6118H49.9905V41.151C49.9905 40.6504 49.8482 40.2578 49.5636 39.9732C49.2789 39.6788 48.8912 39.5315 48.4005 39.5315C48.057 39.5315 47.7527 39.6002 47.4877 39.7376C47.2227 39.8652 47.0019 40.0517 46.8252 40.2971V45.6118H44.8083ZM57.3483 45.759C56.514 45.759 55.6994 45.6069 54.9044 45.3026C54.1094 44.9886 53.4027 44.5469 52.7844 43.9776L54.0063 42.4465C54.605 42.9765 55.1792 43.3593 55.7288 43.5949C56.2883 43.8304 56.8772 43.9482 57.4955 43.9482C57.9274 43.9482 58.3003 43.8991 58.6144 43.801C58.9285 43.693 59.1689 43.5409 59.3358 43.3446C59.5124 43.1483 59.6008 42.9176 59.6008 42.6526C59.6008 42.2993 59.4732 42.0294 59.218 41.8429C58.9628 41.6466 58.5261 41.4945 57.9077 41.3865L55.8613 41.0332C54.9878 40.886 54.3204 40.5768 53.8591 40.1057C53.4076 39.6346 53.1819 39.0261 53.1819 38.2801C53.1819 37.6422 53.3438 37.0876 53.6677 36.6165C54.0014 36.1454 54.4676 35.7872 55.0663 35.5418C55.6749 35.2866 56.3962 35.159 57.2305 35.159C57.9862 35.159 58.7371 35.2866 59.483 35.5418C60.2387 35.797 60.9061 36.1503 61.4852 36.6018L60.3369 38.1918C59.2573 37.3674 58.1727 36.9551 57.0833 36.9551C56.7005 36.9551 56.3668 37.0042 56.0822 37.1024C55.7975 37.2005 55.5767 37.3379 55.4197 37.5146C55.2724 37.6814 55.1988 37.8826 55.1988 38.1182C55.1988 38.4323 55.3117 38.6776 55.5374 38.8543C55.7632 39.0212 56.1411 39.1488 56.6711 39.2371L58.6144 39.561C59.6449 39.7278 60.4154 40.0566 60.9258 40.5474C61.4361 41.0283 61.6913 41.6663 61.6913 42.4613C61.6913 43.1287 61.5147 43.7126 61.1613 44.2132C60.808 44.7039 60.3025 45.0867 59.6449 45.3615C58.9972 45.6265 58.2316 45.759 57.3483 45.759ZM62.9554 45.6118V35.3063H70.8759V37.1613H65.0901V39.5168H68.9032V41.3129H65.0901V43.7568H70.9348V45.6118H62.9554Z" fill="#8E0909"/>
</g>
<g clip-path="url(#clip0_987_4792)" filter="url(#filter1_d_987_4792)">
<g filter="url(#filter2_d_987_4792)">
<path d="M100.958 2.94446C100.763 2.94446 100.576 3.02201 100.438 3.16006C100.3 3.29811 100.222 3.48534 100.222 3.68057V6.62501C100.222 6.82024 100.3 7.00747 100.438 7.14552C100.576 7.28357 100.763 7.36112 100.958 7.36112C101.154 7.36112 101.341 7.28357 101.479 7.14552C101.617 7.00747 101.694 6.82024 101.694 6.62501V3.68057C101.694 3.48534 101.617 3.29811 101.479 3.16006C101.341 3.02201 101.154 2.94446 100.958 2.94446ZM106.685 5.31474C106.617 5.24618 106.536 5.1918 106.446 5.15469C106.357 5.11758 106.261 5.09848 106.164 5.09848C106.067 5.09848 105.971 5.11758 105.882 5.15469C105.793 5.1918 105.711 5.24618 105.643 5.31474L103.561 7.39793C103.491 7.46583 103.435 7.54706 103.396 7.63687C103.358 7.72668 103.337 7.82327 103.337 7.92101C103.336 8.01875 103.354 8.11568 103.391 8.20615C103.428 8.29661 103.483 8.3788 103.552 8.44792C103.621 8.51703 103.703 8.57169 103.794 8.6087C103.884 8.64571 103.981 8.66434 104.079 8.66349C104.177 8.66264 104.273 8.64233 104.363 8.60375C104.453 8.56518 104.534 8.5091 104.602 8.43879L106.684 6.35707C106.822 6.21903 106.899 6.03183 106.899 5.83664C106.899 5.64145 106.822 5.45425 106.684 5.31621L106.685 5.31474ZM95.2314 5.31474C95.1628 5.38311 95.1084 5.46434 95.0713 5.55378C95.0342 5.64321 95.0151 5.73908 95.0151 5.8359C95.0151 5.93273 95.0342 6.0286 95.0713 6.11803C95.1084 6.20746 95.1628 6.28869 95.2314 6.35707L97.316 8.43879C97.3839 8.5091 97.4652 8.56518 97.555 8.60375C97.6448 8.64233 97.7414 8.66264 97.8391 8.66349C97.9369 8.66434 98.0338 8.64571 98.1243 8.6087C98.2147 8.57169 98.2969 8.51703 98.366 8.44792C98.4351 8.3788 98.4898 8.29661 98.5268 8.20615C98.5638 8.11568 98.5824 8.01875 98.5816 7.92101C98.5808 7.82327 98.5604 7.72668 98.5219 7.63687C98.4833 7.54706 98.4272 7.46583 98.3569 7.39793L96.2752 5.31621C96.1371 5.17821 95.9499 5.10068 95.7548 5.10068C95.5596 5.10068 95.3724 5.17821 95.2343 5.31621L95.2314 5.31474ZM109.056 11.0417C109.056 10.8465 108.978 10.6592 108.84 10.5212C108.702 10.3831 108.515 10.3056 108.319 10.3056H105.375C105.18 10.3056 104.993 10.3831 104.854 10.5212C104.716 10.6592 104.639 10.8465 104.639 11.0417C104.639 11.2369 104.716 11.4241 104.854 11.5622C104.993 11.7002 105.18 11.7778 105.375 11.7778H108.319C108.515 11.7778 108.702 11.7002 108.84 11.5622C108.978 11.4241 109.056 11.2369 109.056 11.0417ZM100.958 11.8249V25.4577C100.959 25.6035 100.916 25.746 100.835 25.8673C100.754 25.9886 100.639 26.0832 100.504 26.139C100.369 26.1948 100.221 26.2094 100.078 26.1809C99.9353 26.1524 99.804 26.0821 99.701 25.9788L95.9322 22.21C95.3801 21.6577 94.6313 21.3474 93.8504 21.3472H89.0922C88.9394 21.3471 88.7904 21.2995 88.6659 21.2109C88.5414 21.1223 88.4476 20.9971 88.3974 20.8528C88.3473 20.7084 88.3433 20.5521 88.386 20.4054C88.4287 20.2586 88.516 20.1289 88.6358 20.034L99.7658 11.2463C99.8744 11.1605 100.005 11.1071 100.142 11.0921C100.28 11.0771 100.419 11.1012 100.544 11.1616C100.668 11.222 100.773 11.3163 100.846 11.4336C100.92 11.5509 100.959 11.6865 100.958 11.8249Z" fill="#FFB400"/>
<path d="M106.395 5.54819C106.368 5.52617 106.338 5.50812 106.305 5.49464C106.26 5.47608 106.213 5.46653 106.164 5.46653C106.116 5.46653 106.068 5.47608 106.023 5.49464C105.978 5.51319 105.938 5.54039 105.904 5.57466L105.903 5.5749L103.822 7.65809L103.822 7.65813L103.817 7.66267C103.782 7.69662 103.754 7.73723 103.734 7.78214C103.715 7.82704 103.705 7.87534 103.705 7.92421C103.704 7.97308 103.713 8.02154 103.732 8.06677L103.391 8.20615L103.732 8.06678C103.75 8.11201 103.778 8.1531 103.812 8.18766C103.847 8.22222 103.888 8.24955 103.933 8.26805L103.794 8.6087L103.933 8.26805C103.978 8.28656 104.027 8.29587 104.076 8.29545C104.125 8.29502 104.173 8.28487 104.218 8.26558C104.263 8.24629 104.303 8.21825 104.337 8.1831L104.337 8.18306L104.342 8.17854L106.423 6.09685C106.424 6.09684 106.424 6.09683 106.424 6.09681C106.493 6.0278 106.531 5.93422 106.531 5.83664C106.531 5.73904 106.492 5.64544 106.423 5.57642L106.395 5.54819ZM95.4913 6.09649L95.4914 6.09663L97.5761 8.17835L97.5762 8.17831L97.5808 8.1831C97.6147 8.21825 97.6553 8.24629 97.7003 8.26558C97.7452 8.28487 97.7935 8.29502 97.8423 8.29545C97.8912 8.29587 97.9397 8.28656 97.9849 8.26805C98.0301 8.24955 98.0712 8.22222 98.1058 8.18766C98.1403 8.1531 98.1677 8.11201 98.1862 8.06678C98.2047 8.02155 98.214 7.97308 98.2136 7.92421C98.2131 7.87534 98.203 7.82704 98.1837 7.78214C98.1644 7.73723 98.1364 7.69662 98.1012 7.66267L98.1012 7.66271L98.0966 7.65818L96.015 5.5765C96.015 5.57649 96.0149 5.57648 96.0149 5.57646C95.9459 5.50749 95.8523 5.46874 95.7548 5.46874C95.6572 5.46874 95.5636 5.5075 95.4945 5.5765L95.4594 5.61165C95.4398 5.6371 95.4236 5.66506 95.4113 5.69484C95.3927 5.73955 95.3832 5.78749 95.3832 5.8359C95.3832 5.88431 95.3927 5.93225 95.4113 5.97697C95.4298 6.02168 95.457 6.0623 95.4913 6.09649ZM100.59 11.8249L100.59 11.8244C100.59 11.7552 100.571 11.6874 100.534 11.6287C100.498 11.5701 100.445 11.5229 100.383 11.4927L100.536 11.177L100.383 11.4927C100.321 11.4625 100.251 11.4505 100.182 11.458C100.114 11.4655 100.048 11.4922 99.994 11.5351L99.9939 11.5352L88.8643 20.3226C88.8044 20.37 88.7607 20.4349 88.7394 20.5082C88.718 20.5816 88.72 20.6598 88.7451 20.7319C88.7702 20.8041 88.8171 20.8667 88.8794 20.911C88.9416 20.9553 89.0161 20.9791 89.0925 20.9792H93.8504H93.8505C94.729 20.9794 95.5714 21.3285 96.1924 21.9497L99.9613 25.7186L99.9616 25.7189C100.013 25.7705 100.079 25.8057 100.15 25.8199C100.222 25.8342 100.296 25.8269 100.363 25.799C100.43 25.7711 100.488 25.7238 100.528 25.6632C100.569 25.6025 100.59 25.5312 100.59 25.4583V25.4577L100.59 11.8249ZM100.958 11.8249V25.4577L99.7658 11.2463C99.8744 11.1605 100.005 11.1071 100.142 11.0921C100.28 11.0771 100.419 11.1012 100.544 11.1616C100.668 11.222 100.773 11.3163 100.846 11.4336C100.92 11.5509 100.959 11.6865 100.958 11.8249ZM100.958 3.31251C100.861 3.31251 100.767 3.35129 100.698 3.42031C100.629 3.48934 100.59 3.58296 100.59 3.68057V6.62501C100.59 6.72263 100.629 6.81624 100.698 6.88527C100.767 6.95429 100.861 6.99307 100.958 6.99307C101.056 6.99307 101.15 6.95429 101.219 6.88527C101.288 6.81624 101.326 6.72263 101.326 6.62501V3.68057C101.326 3.58295 101.288 3.48934 101.219 3.42031C101.15 3.35129 101.056 3.31251 100.958 3.31251ZM108.687 11.0417C108.687 10.9441 108.649 10.8504 108.58 10.7814C108.511 10.7124 108.417 10.6736 108.319 10.6736H105.375C105.277 10.6736 105.184 10.7124 105.115 10.7814C105.046 10.8504 105.007 10.9441 105.007 11.0417C105.007 11.1393 105.046 11.2329 105.115 11.3019C105.184 11.371 105.277 11.4097 105.375 11.4097H108.319C108.417 11.4097 108.511 11.371 108.58 11.3019C108.649 11.2329 108.687 11.1393 108.687 11.0417Z" stroke="white" stroke-width="0.736111"/>
</g>
</g>
<defs>
<filter id="filter0_d_987_4792" x="0.111111" y="20.3062" width="106" height="45.6388" filterUnits="userSpaceOnUse" color-interpolation-filters="sRGB">
<feFlood flood-opacity="0" result="BackgroundImageFix"/>
<feColorMatrix in="SourceAlpha" type="matrix" values="0 0 0 0 0 0 0 0 0 0 0 0 0 0 0 0 0 0 127 0" result="hardAlpha"/>
<feOffset dx="2.94444" dy="2.94444"/>
<feGaussianBlur stdDeviation="4.41667"/>
<feComposite in2="hardAlpha" operator="out"/>
<feColorMatrix type="matrix" values="0 0 0 0 0 0 0 0 0 0 0 0 0 0 0 0 0 0 0.25 0"/>
<feBlend mode="normal" in2="BackgroundImageFix" result="effect1_dropShadow_987_4792"/>
<feBlend mode="normal" in="SourceGraphic" in2="effect1_dropShadow_987_4792" result="shape"/>
</filter>
<filter id="filter1_d_987_4792" x="79.6111" y="0" width="35.3333" height="35.3333" filterUnits="userSpaceOnUse" color-interpolation-filters="sRGB">
<feFlood flood-opacity="0" result="BackgroundImageFix"/>
<feColorMatrix in="SourceAlpha" type="matrix" values="0 0 0 0 0 0 0 0 0 0 0 0 0 0 0 0 0 0 127 0" result="hardAlpha"/>
<feOffset dy="2.94444"/>
<feGaussianBlur stdDeviation="1.47222"/>
<feComposite in2="hardAlpha" operator="out"/>
<feColorMatrix type="matrix" values="0 0 0 0 0 0 0 0 0 0 0 0 0 0 0 0 0 0 0.25 0"/>
<feBlend mode="normal" in2="BackgroundImageFix" result="effect1_dropShadow_987_4792"/>
<feBlend mode="normal" in="SourceGraphic" in2="effect1_dropShadow_987_4792" result="shape"/>
</filter>
<filter id="filter2_d_987_4792" x="85.4122" y="2.94446" width="26.5877" height="29.1395" filterUnits="userSpaceOnUse" color-interpolation-filters="sRGB">
<feFlood flood-opacity="0" result="BackgroundImageFix"/>
<feColorMatrix in="SourceAlpha" type="matrix" values="0 0 0 0 0 0 0 0 0 0 0 0 0 0 0 0 0 0 127 0" result="hardAlpha"/>
<feOffset dy="2.94444"/>
<feGaussianBlur stdDeviation="1.47222"/>
<feComposite in2="hardAlpha" operator="out"/>
<feColorMatrix type="matrix" values="0 0 0 0 0 0 0 0 0 0 0 0 0 0 0 0 0 0 0.25 0"/>
<feBlend mode="normal" in2="BackgroundImageFix" result="effect1_dropShadow_987_4792"/>
<feBlend mode="normal" in="SourceGraphic" in2="effect1_dropShadow_987_4792" result="shape"/>
</filter>
<clipPath id="clip0_987_4792">
<rect width="29.4444" height="29.4444" fill="white" transform="matrix(-1 0 0 1 112 0)"/>
</clipPath>
</defs>
</svg>
