<svg width="152" height="90" viewBox="0 0 152 90" fill="none" xmlns="http://www.w3.org/2000/svg">
<path d="M8.756 12V3.6H12.704C13.272 3.6 13.768 3.696 14.192 3.888C14.616 4.08 14.948 4.352 15.188 4.704C15.428 5.048 15.548 5.448 15.548 5.904C15.548 6.272 15.452 6.612 15.26 6.924C15.076 7.228 14.824 7.476 14.504 7.668C14.912 7.86 15.236 8.12 15.476 8.448C15.716 8.776 15.836 9.148 15.836 9.564C15.836 10.044 15.712 10.468 15.464 10.836C15.224 11.204 14.88 11.492 14.432 11.7C13.992 11.9 13.48 12 12.896 12H8.756ZM10.496 7.032H12.596C12.972 7.032 13.268 6.944 13.484 6.768C13.708 6.584 13.82 6.34 13.82 6.036C13.82 5.732 13.708 5.492 13.484 5.316C13.268 5.132 12.972 5.04 12.596 5.04H10.496V7.032ZM10.496 10.56H12.764C13.164 10.56 13.484 10.464 13.724 10.272C13.964 10.072 14.084 9.808 14.084 9.48C14.084 9.144 13.964 8.88 13.724 8.688C13.484 8.488 13.164 8.388 12.764 8.388H10.496V10.56ZM16.9449 12V5.748H18.5889V6.444C18.7889 6.172 19.0289 5.964 19.3089 5.82C19.5889 5.676 19.9049 5.604 20.2569 5.604C20.5609 5.612 20.7889 5.66 20.9409 5.748V7.188C20.8209 7.132 20.6889 7.092 20.5449 7.068C20.4009 7.036 20.2529 7.02 20.1009 7.02C19.7809 7.02 19.4889 7.1 19.2249 7.26C18.9609 7.42 18.7489 7.648 18.5889 7.944V12H16.9449ZM24.6452 12.12C24.0212 12.12 23.4572 11.976 22.9532 11.688C22.4492 11.4 22.0492 11.012 21.7532 10.524C21.4572 10.036 21.3092 9.488 21.3092 8.88C21.3092 8.272 21.4532 7.724 21.7412 7.236C22.0372 6.74 22.4372 6.348 22.9412 6.06C23.4532 5.772 24.0212 5.628 24.6452 5.628C25.2692 5.628 25.8332 5.772 26.3372 6.06C26.8492 6.348 27.2492 6.74 27.5372 7.236C27.8332 7.724 27.9812 8.272 27.9812 8.88C27.9812 9.488 27.8332 10.036 27.5372 10.524C27.2492 11.012 26.8532 11.4 26.3492 11.688C25.8452 11.976 25.2772 12.12 24.6452 12.12ZM24.6452 10.692C24.9732 10.692 25.2652 10.612 25.5212 10.452C25.7852 10.292 25.9932 10.076 26.1452 9.804C26.3052 9.524 26.3852 9.216 26.3852 8.88C26.3852 8.536 26.3052 8.228 26.1452 7.956C25.9932 7.684 25.7852 7.468 25.5212 7.308C25.2652 7.14 24.9732 7.056 24.6452 7.056C24.3252 7.056 24.0332 7.14 23.7692 7.308C23.5052 7.468 23.2972 7.684 23.1452 7.956C22.9932 8.228 22.9172 8.536 22.9172 8.88C22.9172 9.216 22.9932 9.524 23.1452 9.804C23.2972 10.076 23.5052 10.292 23.7692 10.452C24.0332 10.612 24.3252 10.692 24.6452 10.692ZM31.4158 12.12C30.9358 12.12 30.5078 12.016 30.1318 11.808C29.7638 11.592 29.4718 11.296 29.2558 10.92C29.0478 10.544 28.9438 10.112 28.9438 9.624V5.748H30.5878V9.384C30.5878 9.784 30.7038 10.104 30.9358 10.344C31.1758 10.584 31.4958 10.704 31.8958 10.704C32.1678 10.704 32.4118 10.652 32.6278 10.548C32.8518 10.436 33.0358 10.28 33.1798 10.08V5.748H34.8238V12H33.1798V11.496C32.6998 11.912 32.1118 12.12 31.4158 12.12ZM39.249 14.568C38.769 14.568 38.305 14.516 37.857 14.412C37.409 14.316 37.005 14.176 36.645 13.992L37.221 12.72C37.565 12.888 37.901 13.012 38.229 13.092C38.557 13.172 38.885 13.212 39.213 13.212C39.701 13.212 40.069 13.108 40.317 12.9C40.573 12.692 40.701 12.38 40.701 11.964V11.472C40.189 11.848 39.617 12.036 38.985 12.036C38.393 12.036 37.857 11.896 37.377 11.616C36.905 11.328 36.525 10.94 36.237 10.452C35.957 9.964 35.817 9.424 35.817 8.832C35.817 8.24 35.957 7.704 36.237 7.224C36.525 6.744 36.913 6.364 37.401 6.084C37.889 5.796 38.433 5.652 39.033 5.652C39.337 5.652 39.633 5.696 39.921 5.784C40.209 5.872 40.477 5.996 40.725 6.156V5.748H42.345V11.988C42.345 12.812 42.077 13.448 41.541 13.896C41.013 14.344 40.249 14.568 39.249 14.568ZM39.237 10.644C39.541 10.644 39.817 10.596 40.065 10.5C40.313 10.396 40.525 10.252 40.701 10.068V7.62C40.525 7.444 40.309 7.308 40.053 7.212C39.805 7.108 39.537 7.056 39.249 7.056C38.905 7.056 38.597 7.136 38.325 7.296C38.053 7.448 37.837 7.66 37.677 7.932C37.517 8.196 37.437 8.496 37.437 8.832C37.437 9.176 37.513 9.484 37.665 9.756C37.825 10.028 38.041 10.244 38.313 10.404C38.593 10.564 38.901 10.644 39.237 10.644ZM43.6285 12V3.6L45.2725 3.24V6.264C45.7445 5.84 46.3285 5.628 47.0245 5.628C47.5125 5.628 47.9405 5.736 48.3085 5.952C48.6845 6.16 48.9765 6.452 49.1845 6.828C49.3925 7.196 49.4965 7.628 49.4965 8.124V12H47.8525V8.364C47.8525 7.956 47.7365 7.636 47.5045 7.404C47.2725 7.164 46.9565 7.044 46.5565 7.044C46.2765 7.044 46.0285 7.1 45.8125 7.212C45.5965 7.316 45.4165 7.468 45.2725 7.668V12H43.6285ZM53.53 12.096C52.834 12.096 52.306 11.94 51.946 11.628C51.594 11.308 51.418 10.844 51.418 10.236V7.116H50.134V5.748H51.418V4.152L53.062 3.78V5.748H54.85V7.116H53.062V9.9C53.062 10.188 53.126 10.396 53.254 10.524C53.382 10.644 53.606 10.704 53.926 10.704C54.086 10.704 54.23 10.696 54.358 10.68C54.494 10.656 54.642 10.616 54.802 10.56V11.916C54.634 11.972 54.422 12.016 54.166 12.048C53.918 12.08 53.706 12.096 53.53 12.096ZM61.03 12.096C60.334 12.096 59.806 11.94 59.446 11.628C59.094 11.308 58.918 10.844 58.918 10.236V7.116H57.634V5.748H58.918V4.152L60.562 3.78V5.748H62.35V7.116H60.562V9.9C60.562 10.188 60.626 10.396 60.754 10.524C60.882 10.644 61.106 10.704 61.426 10.704C61.586 10.704 61.73 10.696 61.858 10.68C61.994 10.656 62.142 10.616 62.302 10.56V11.916C62.134 11.972 61.922 12.016 61.666 12.048C61.418 12.08 61.206 12.096 61.03 12.096ZM66.1296 12.12C65.5056 12.12 64.9416 11.976 64.4376 11.688C63.9336 11.4 63.5336 11.012 63.2376 10.524C62.9416 10.036 62.7936 9.488 62.7936 8.88C62.7936 8.272 62.9376 7.724 63.2256 7.236C63.5216 6.74 63.9216 6.348 64.4256 6.06C64.9376 5.772 65.5056 5.628 66.1296 5.628C66.7536 5.628 67.3176 5.772 67.8216 6.06C68.3336 6.348 68.7336 6.74 69.0216 7.236C69.3176 7.724 69.4656 8.272 69.4656 8.88C69.4656 9.488 69.3176 10.036 69.0216 10.524C68.7336 11.012 68.3376 11.4 67.8336 11.688C67.3296 11.976 66.7616 12.12 66.1296 12.12ZM66.1296 10.692C66.4576 10.692 66.7496 10.612 67.0056 10.452C67.2696 10.292 67.4776 10.076 67.6296 9.804C67.7896 9.524 67.8696 9.216 67.8696 8.88C67.8696 8.536 67.7896 8.228 67.6296 7.956C67.4776 7.684 67.2696 7.468 67.0056 7.308C66.7496 7.14 66.4576 7.056 66.1296 7.056C65.8096 7.056 65.5176 7.14 65.2536 7.308C64.9896 7.468 64.7816 7.684 64.6296 7.956C64.4776 8.228 64.4016 8.536 64.4016 8.88C64.4016 9.216 64.4776 9.524 64.6296 9.804C64.7816 10.076 64.9896 10.292 65.2536 10.452C65.5176 10.612 65.8096 10.692 66.1296 10.692ZM73.5022 14.58C73.3582 14.58 73.2182 14.572 73.0822 14.556C72.9542 14.548 72.8462 14.536 72.7582 14.52V13.104C72.9182 13.136 73.1102 13.152 73.3342 13.152C73.9342 13.152 74.3502 12.868 74.5822 12.3L74.6782 12.06L72.2422 5.748H74.0542L75.6142 10.008L77.3782 5.748H79.1542L76.2742 12.504C76.0582 13.008 75.8222 13.412 75.5662 13.716C75.3102 14.02 75.0142 14.24 74.6782 14.376C74.3502 14.512 73.9582 14.58 73.5022 14.58ZM82.6882 12.12C82.0642 12.12 81.5002 11.976 80.9962 11.688C80.4922 11.4 80.0922 11.012 79.7962 10.524C79.5002 10.036 79.3522 9.488 79.3522 8.88C79.3522 8.272 79.4962 7.724 79.7842 7.236C80.0802 6.74 80.4802 6.348 80.9842 6.06C81.4962 5.772 82.0642 5.628 82.6882 5.628C83.3122 5.628 83.8762 5.772 84.3802 6.06C84.8922 6.348 85.2922 6.74 85.5802 7.236C85.8762 7.724 86.0242 8.272 86.0242 8.88C86.0242 9.488 85.8762 10.036 85.5802 10.524C85.2922 11.012 84.8962 11.4 84.3922 11.688C83.8882 11.976 83.3202 12.12 82.6882 12.12ZM82.6882 10.692C83.0162 10.692 83.3082 10.612 83.5642 10.452C83.8282 10.292 84.0362 10.076 84.1882 9.804C84.3482 9.524 84.4282 9.216 84.4282 8.88C84.4282 8.536 84.3482 8.228 84.1882 7.956C84.0362 7.684 83.8282 7.468 83.5642 7.308C83.3082 7.14 83.0162 7.056 82.6882 7.056C82.3682 7.056 82.0762 7.14 81.8122 7.308C81.5482 7.468 81.3402 7.684 81.1882 7.956C81.0362 8.228 80.9602 8.536 80.9602 8.88C80.9602 9.216 81.0362 9.524 81.1882 9.804C81.3402 10.076 81.5482 10.292 81.8122 10.452C82.0762 10.612 82.3682 10.692 82.6882 10.692ZM89.4587 12.12C88.9787 12.12 88.5507 12.016 88.1747 11.808C87.8067 11.592 87.5147 11.296 87.2987 10.92C87.0907 10.544 86.9867 10.112 86.9867 9.624V5.748H88.6307V9.384C88.6307 9.784 88.7467 10.104 88.9787 10.344C89.2187 10.584 89.5387 10.704 89.9387 10.704C90.2107 10.704 90.4547 10.652 90.6707 10.548C90.8947 10.436 91.0787 10.28 91.2227 10.08V5.748H92.8667V12H91.2227V11.496C90.7427 11.912 90.1547 12.12 89.4587 12.12ZM96.5621 12V3.6L98.2061 3.324V6.252C98.7021 5.86 99.2861 5.664 99.9581 5.664C100.55 5.664 101.086 5.808 101.566 6.096C102.046 6.384 102.426 6.772 102.706 7.26C102.994 7.74 103.138 8.28 103.138 8.88C103.138 9.48 102.994 10.024 102.706 10.512C102.418 10.992 102.03 11.376 101.542 11.664C101.054 11.944 100.51 12.084 99.9101 12.084C99.5981 12.084 99.2941 12.04 98.9981 11.952C98.7021 11.864 98.4301 11.736 98.1821 11.568V12H96.5621ZM99.6941 10.692C100.038 10.692 100.346 10.612 100.618 10.452C100.898 10.292 101.118 10.076 101.278 9.804C101.438 9.532 101.518 9.224 101.518 8.88C101.518 8.536 101.438 8.228 101.278 7.956C101.118 7.676 100.898 7.46 100.618 7.308C100.346 7.148 100.038 7.068 99.6941 7.068C99.3901 7.068 99.1101 7.12 98.8541 7.224C98.6061 7.32 98.3901 7.468 98.2061 7.668V10.104C98.3821 10.288 98.5981 10.432 98.8541 10.536C99.1181 10.64 99.3981 10.692 99.6941 10.692ZM104.569 14.58C104.425 14.58 104.285 14.572 104.149 14.556C104.021 14.548 103.913 14.536 103.825 14.52V13.104C103.985 13.136 104.177 13.152 104.401 13.152C105.001 13.152 105.417 12.868 105.649 12.3L105.745 12.06L103.309 5.748H105.121L106.681 10.008L108.445 5.748H110.221L107.341 12.504C107.125 13.008 106.889 13.412 106.633 13.716C106.377 14.02 106.081 14.24 105.745 14.376C105.417 14.512 105.025 14.58 104.569 14.58Z" fill="white"/>
<g filter="url(#filter0_d_983_4705)">
<rect width="120" height="38" transform="translate(8 35.5858)" fill="#FFB400"/>
<path d="M42.98 61.7858C42.02 61.7858 41.1333 61.6658 40.32 61.4258C39.5067 61.1725 38.8 60.8125 38.2 60.3458L39.56 58.5258C40.16 58.9258 40.7333 59.2258 41.28 59.4258C41.84 59.6258 42.3933 59.7258 42.94 59.7258C43.5533 59.7258 44.04 59.6258 44.4 59.4258C44.7733 59.2125 44.96 58.9391 44.96 58.6058C44.96 58.3391 44.8533 58.1258 44.64 57.9658C44.44 57.8058 44.1133 57.6925 43.66 57.6258L41.66 57.3258C40.62 57.1658 39.8333 56.8325 39.3 56.3258C38.7667 55.8058 38.5 55.1258 38.5 54.2858C38.5 53.6058 38.6733 53.0258 39.02 52.5458C39.38 52.0525 39.88 51.6725 40.52 51.4058C41.1733 51.1258 41.9467 50.9858 42.84 50.9858C43.6 50.9858 44.34 51.0925 45.06 51.3058C45.7933 51.5191 46.48 51.8458 47.12 52.2858L45.8 54.0658C45.2267 53.7058 44.68 53.4458 44.16 53.2858C43.64 53.1258 43.1133 53.0458 42.58 53.0458C42.0867 53.0458 41.6867 53.1391 41.38 53.3258C41.0867 53.5125 40.94 53.7591 40.94 54.0658C40.94 54.3458 41.0467 54.5658 41.26 54.7258C41.4733 54.8858 41.84 54.9991 42.36 55.0658L44.34 55.3658C45.38 55.5125 46.1733 55.8458 46.72 56.3658C47.2667 56.8725 47.54 57.5325 47.54 58.3458C47.54 59.0125 47.34 59.6058 46.94 60.1258C46.54 60.6325 46 61.0391 45.32 61.3458C44.64 61.6391 43.86 61.7858 42.98 61.7858ZM54.1019 61.7858C53.0619 61.7858 52.1152 61.5458 51.2619 61.0658C50.4219 60.5858 49.7552 59.9391 49.2619 59.1258C48.7685 58.3125 48.5219 57.3991 48.5219 56.3858C48.5219 55.3725 48.7552 54.4591 49.2219 53.6458C49.7019 52.8325 50.3485 52.1858 51.1619 51.7058C51.9752 51.2258 52.8819 50.9858 53.8819 50.9858C54.8819 50.9858 55.7685 51.2325 56.5419 51.7258C57.3152 52.2191 57.9219 52.8858 58.3619 53.7258C58.8152 54.5658 59.0419 55.5191 59.0419 56.5858V57.3058H51.3219C51.4419 57.7191 51.6352 58.0925 51.9019 58.4258C52.1819 58.7591 52.5219 59.0191 52.9219 59.2058C53.3352 59.3925 53.7752 59.4858 54.2419 59.4858C54.7085 59.4858 55.1352 59.4125 55.5219 59.2658C55.9219 59.1191 56.2619 58.9125 56.5419 58.6458L58.3419 60.2858C57.7019 60.8058 57.0419 61.1858 56.3619 61.4258C55.6952 61.6658 54.9419 61.7858 54.1019 61.7858ZM51.2819 55.3458H56.3419C56.2485 54.9325 56.0752 54.5725 55.8219 54.2658C55.5819 53.9458 55.2885 53.6991 54.9419 53.5258C54.6085 53.3391 54.2352 53.2458 53.8219 53.2458C53.3952 53.2458 53.0085 53.3325 52.6619 53.5058C52.3152 53.6791 52.0219 53.9258 51.7819 54.2458C51.5552 54.5525 51.3885 54.9191 51.2819 55.3458ZM60.7206 61.5858V51.1658H63.4606V52.0258C64.2473 51.3191 65.2206 50.9658 66.3806 50.9658C67.194 50.9658 67.9073 51.1458 68.5206 51.5058C69.1473 51.8525 69.634 52.3391 69.9806 52.9658C70.3273 53.5791 70.5006 54.2991 70.5006 55.1258V61.5858H67.7606V55.5258C67.7606 54.8458 67.5673 54.3125 67.1806 53.9258C66.794 53.5258 66.2673 53.3258 65.6006 53.3258C65.134 53.3258 64.7206 53.4191 64.3606 53.6058C64.0006 53.7791 63.7006 54.0325 63.4606 54.3658V61.5858H60.7206ZM77.7561 61.7858C76.6228 61.7858 75.5161 61.5791 74.4361 61.1658C73.3561 60.7391 72.3961 60.1391 71.5561 59.3658L73.2161 57.2858C74.0294 58.0058 74.8094 58.5258 75.5561 58.8458C76.3161 59.1658 77.1161 59.3258 77.9561 59.3258C78.5428 59.3258 79.0494 59.2591 79.4761 59.1258C79.9028 58.9791 80.2294 58.7725 80.4561 58.5058C80.6961 58.2391 80.8161 57.9258 80.8161 57.5658C80.8161 57.0858 80.6428 56.7191 80.2961 56.4658C79.9494 56.1991 79.3561 55.9925 78.5161 55.8458L75.7361 55.3658C74.5494 55.1658 73.6428 54.7458 73.0161 54.1058C72.4028 53.4658 72.0961 52.6391 72.0961 51.6258C72.0961 50.7591 72.3161 50.0058 72.7561 49.3658C73.2094 48.7258 73.8428 48.2391 74.6561 47.9058C75.4828 47.5591 76.4628 47.3858 77.5961 47.3858C78.6228 47.3858 79.6428 47.5591 80.6561 47.9058C81.6828 48.2525 82.5894 48.7325 83.3761 49.3458L81.8161 51.5058C80.3494 50.3858 78.8761 49.8258 77.3961 49.8258C76.8761 49.8258 76.4228 49.8925 76.0361 50.0258C75.6494 50.1591 75.3494 50.3458 75.1361 50.5858C74.9361 50.8125 74.8361 51.0858 74.8361 51.4058C74.8361 51.8325 74.9894 52.1658 75.2961 52.4058C75.6028 52.6325 76.1161 52.8058 76.8361 52.9258L79.4761 53.3658C80.8761 53.5925 81.9228 54.0391 82.6161 54.7058C83.3094 55.3591 83.6561 56.2258 83.6561 57.3058C83.6561 58.2125 83.4161 59.0058 82.9361 59.6858C82.4561 60.3525 81.7694 60.8725 80.8761 61.2458C79.9961 61.6058 78.9561 61.7858 77.7561 61.7858ZM85.3733 61.5858V47.5858H96.1333V50.1058H88.2733V53.3058H93.4533V55.7458H88.2733V59.0658H96.2133V61.5858H85.3733Z" fill="#8E0909"/>
</g>
<g clip-path="url(#clip0_983_4705)" filter="url(#filter1_d_983_4705)">
<g filter="url(#filter2_d_983_4705)">
<path d="M137 4C136.735 4 136.48 4.10536 136.293 4.29289C136.105 4.48043 136 4.73478 136 5V9C136 9.26522 136.105 9.51957 136.293 9.70711C136.48 9.89464 136.735 10 137 10C137.265 10 137.52 9.89464 137.707 9.70711C137.895 9.51957 138 9.26522 138 9V5C138 4.73478 137.895 4.48043 137.707 4.29289C137.52 4.10536 137.265 4 137 4ZM144.78 7.22C144.687 7.12687 144.577 7.05299 144.455 7.00257C144.334 6.95216 144.204 6.92621 144.072 6.92621C143.94 6.92621 143.81 6.95216 143.689 7.00257C143.567 7.05299 143.457 7.12687 143.364 7.22L140.536 10.05C140.44 10.1422 140.364 10.2526 140.312 10.3746C140.259 10.4966 140.232 10.6278 140.231 10.7606C140.23 10.8934 140.255 11.0251 140.305 11.148C140.355 11.2709 140.43 11.3825 140.524 11.4764C140.617 11.5703 140.729 11.6445 140.852 11.6948C140.975 11.7451 141.107 11.7704 141.239 11.7693C141.372 11.7681 141.503 11.7405 141.625 11.6881C141.747 11.6357 141.858 11.5595 141.95 11.464L144.778 8.636C144.965 8.44847 145.071 8.19416 145.071 7.929C145.071 7.66384 144.965 7.40953 144.778 7.222L144.78 7.22ZM129.22 7.22C129.127 7.31289 129.053 7.42324 129.003 7.54473C128.952 7.66622 128.926 7.79647 128.926 7.928C128.926 8.05953 128.952 8.18978 129.003 8.31127C129.053 8.43276 129.127 8.54311 129.22 8.636L132.052 11.464C132.144 11.5595 132.255 11.6357 132.377 11.6881C132.499 11.7405 132.63 11.7681 132.763 11.7693C132.895 11.7704 133.027 11.7451 133.15 11.6948C133.273 11.6445 133.385 11.5703 133.478 11.4764C133.572 11.3825 133.647 11.2709 133.697 11.148C133.747 11.0251 133.772 10.8934 133.771 10.7606C133.77 10.6278 133.743 10.4966 133.69 10.3746C133.638 10.2526 133.562 10.1422 133.466 10.05L130.638 7.222C130.45 7.03453 130.196 6.92921 129.931 6.92921C129.666 6.92921 129.412 7.03453 129.224 7.222L129.22 7.22ZM148 15C148 14.7348 147.895 14.4804 147.707 14.2929C147.52 14.1054 147.265 14 147 14H143C142.735 14 142.48 14.1054 142.293 14.2929C142.105 14.4804 142 14.7348 142 15C142 15.2652 142.105 15.5196 142.293 15.7071C142.48 15.8946 142.735 16 143 16H147C147.265 16 147.52 15.8946 147.707 15.7071C147.895 15.5196 148 15.2652 148 15ZM137 16.064V34.584C137 34.782 136.942 34.9757 136.832 35.1405C136.722 35.3053 136.566 35.4337 136.383 35.5096C136.2 35.5854 135.999 35.6052 135.804 35.5665C135.61 35.5277 135.432 35.4322 135.292 35.292L130.172 30.172C129.422 29.4218 128.405 29.0002 127.344 29H120.88C120.672 28.9998 120.47 28.9351 120.301 28.8147C120.132 28.6944 120.004 28.5243 119.936 28.3283C119.868 28.1322 119.863 27.9198 119.921 27.7205C119.979 27.5212 120.097 27.3449 120.26 27.216L135.38 15.278C135.527 15.1615 135.705 15.0888 135.892 15.0685C136.079 15.0481 136.267 15.0809 136.437 15.1629C136.606 15.245 136.748 15.373 136.848 15.5324C136.948 15.6918 137 15.876 137 16.064Z" fill="#FFB400"/>
<path d="M136.5 16.0633L136.5 16.064L136.5 34.584V34.5849C136.5 34.6839 136.471 34.7808 136.416 34.8631C136.361 34.9455 136.283 35.0098 136.191 35.0477C136.1 35.0856 135.999 35.0955 135.902 35.0761C135.805 35.0568 135.716 35.009 135.646 34.9389L135.646 34.9384L130.526 29.8185C130.526 29.8185 130.526 29.8185 130.526 29.8184C129.682 28.9745 128.537 28.5003 127.344 28.5H127.344H120.88C120.777 28.4999 120.675 28.4675 120.591 28.4074C120.506 28.3472 120.443 28.2622 120.408 28.1641C120.374 28.0661 120.372 27.9599 120.401 27.8602C120.43 27.7608 120.489 27.6728 120.57 27.6084L136.5 16.0633ZM136.5 16.0633C136.5 15.9693 136.474 15.8772 136.424 15.7975C136.374 15.7178 136.303 15.6538 136.218 15.6128C136.134 15.5717 136.039 15.5554 135.946 15.5655C135.852 15.5757 135.764 15.612 135.69 15.6703L135.69 15.6704L120.57 27.608L136.5 16.0633ZM137 34.584V16.064C137 15.876 136.948 15.6918 136.848 15.5324C136.748 15.373 136.606 15.245 136.437 15.1629C136.267 15.0809 136.079 15.0481 135.892 15.0685L137 34.584ZM137 34.584C137 34.782 136.942 34.9757 136.832 35.1405M137 34.584L136.832 35.1405M136.832 35.1405C136.722 35.3053 136.566 35.4337 136.383 35.5096M136.832 35.1405L136.383 35.5096M136.383 35.5096C136.2 35.5854 135.999 35.6052 135.804 35.5665M136.383 35.5096L135.804 35.5665M135.804 35.5665C135.61 35.5277 135.432 35.4322 135.292 35.292L135.804 35.5665ZM144.386 7.53715C144.349 7.50724 144.308 7.48272 144.264 7.46439C144.203 7.43919 144.138 7.42621 144.072 7.42621C144.006 7.42621 143.941 7.43919 143.88 7.46439C143.82 7.4896 143.764 7.52654 143.718 7.57311L143.718 7.57343L140.89 10.4034L140.89 10.4035L140.883 10.4096C140.836 10.4558 140.798 10.5109 140.771 10.5719C140.745 10.6329 140.731 10.6986 140.731 10.7649C140.73 10.8313 140.743 10.8972 140.768 10.9586C140.793 11.0201 140.83 11.0759 140.877 11.1228C140.924 11.1698 140.98 11.2069 141.041 11.2321C141.103 11.2572 141.169 11.2698 141.235 11.2693C141.301 11.2687 141.367 11.2549 141.428 11.2287C141.489 11.2025 141.544 11.1644 141.59 11.1166L141.59 11.1166L141.596 11.1104L144.424 8.2825C144.424 8.28248 144.424 8.28246 144.424 8.28245C144.518 8.18869 144.571 8.06156 144.571 7.929C144.571 7.79642 144.518 7.66926 144.424 7.5755L144.386 7.53715ZM129.573 8.282L129.573 8.2822L132.405 11.1102L132.405 11.1101L132.412 11.1166C132.458 11.1644 132.513 11.2025 132.574 11.2287C132.635 11.2549 132.701 11.2687 132.767 11.2693C132.833 11.2698 132.899 11.2572 132.961 11.2321C133.022 11.2069 133.078 11.1698 133.125 11.1228C133.172 11.0759 133.209 11.0201 133.234 10.9586C133.259 10.8972 133.272 10.8313 133.271 10.7649C133.271 10.6986 133.257 10.6329 133.231 10.5719C133.204 10.5109 133.166 10.4558 133.119 10.4096L133.119 10.4097L133.112 10.4036L130.285 7.57561C130.284 7.57559 130.284 7.57557 130.284 7.57555C130.191 7.48185 130.064 7.42921 129.931 7.42921C129.798 7.42921 129.671 7.48187 129.577 7.57561L129.53 7.62335C129.503 7.65793 129.481 7.69591 129.464 7.73637C129.439 7.79711 129.426 7.86223 129.426 7.928C129.426 7.99377 129.439 8.05889 129.464 8.11963C129.49 8.18038 129.527 8.23556 129.573 8.282ZM137 4.5C136.867 4.5 136.74 4.55268 136.646 4.64645C136.553 4.74022 136.5 4.86739 136.5 5V9C136.5 9.13261 136.553 9.25978 136.646 9.35355C136.74 9.44732 136.867 9.5 137 9.5C137.133 9.5 137.26 9.44732 137.354 9.35355C137.447 9.25978 137.5 9.13261 137.5 9V5C137.5 4.86739 137.447 4.74022 137.354 4.64645C137.26 4.55268 137.133 4.5 137 4.5ZM147.5 15C147.5 14.8674 147.447 14.7402 147.354 14.6464C147.26 14.5527 147.133 14.5 147 14.5H143C142.867 14.5 142.74 14.5527 142.646 14.6464C142.553 14.7402 142.5 14.8674 142.5 15C142.5 15.1326 142.553 15.2598 142.646 15.3536C142.74 15.4473 142.867 15.5 143 15.5H147C147.133 15.5 147.26 15.4473 147.354 15.3536C147.447 15.2598 147.5 15.1326 147.5 15Z" stroke="white"/>
</g>
</g>
<defs>
<filter id="filter0_d_983_4705" x="0" y="27.5858" width="144" height="62" filterUnits="userSpaceOnUse" color-interpolation-filters="sRGB">
<feFlood flood-opacity="0" result="BackgroundImageFix"/>
<feColorMatrix in="SourceAlpha" type="matrix" values="0 0 0 0 0 0 0 0 0 0 0 0 0 0 0 0 0 0 127 0" result="hardAlpha"/>
<feOffset dx="4" dy="4"/>
<feGaussianBlur stdDeviation="6"/>
<feComposite in2="hardAlpha" operator="out"/>
<feColorMatrix type="matrix" values="0 0 0 0 0 0 0 0 0 0 0 0 0 0 0 0 0 0 0.25 0"/>
<feBlend mode="normal" in2="BackgroundImageFix" result="effect1_dropShadow_983_4705"/>
<feBlend mode="normal" in="SourceGraphic" in2="effect1_dropShadow_983_4705" result="shape"/>
</filter>
<filter id="filter1_d_983_4705" x="108" y="0" width="48" height="48" filterUnits="userSpaceOnUse" color-interpolation-filters="sRGB">
<feFlood flood-opacity="0" result="BackgroundImageFix"/>
<feColorMatrix in="SourceAlpha" type="matrix" values="0 0 0 0 0 0 0 0 0 0 0 0 0 0 0 0 0 0 127 0" result="hardAlpha"/>
<feOffset dy="4"/>
<feGaussianBlur stdDeviation="2"/>
<feComposite in2="hardAlpha" operator="out"/>
<feColorMatrix type="matrix" values="0 0 0 0 0 0 0 0 0 0 0 0 0 0 0 0 0 0 0.25 0"/>
<feBlend mode="normal" in2="BackgroundImageFix" result="effect1_dropShadow_983_4705"/>
<feBlend mode="normal" in="SourceGraphic" in2="effect1_dropShadow_983_4705" result="shape"/>
</filter>
<filter id="filter2_d_983_4705" x="115.881" y="4" width="36.1192" height="39.5858" filterUnits="userSpaceOnUse" color-interpolation-filters="sRGB">
<feFlood flood-opacity="0" result="BackgroundImageFix"/>
<feColorMatrix in="SourceAlpha" type="matrix" values="0 0 0 0 0 0 0 0 0 0 0 0 0 0 0 0 0 0 127 0" result="hardAlpha"/>
<feOffset dy="4"/>
<feGaussianBlur stdDeviation="2"/>
<feComposite in2="hardAlpha" operator="out"/>
<feColorMatrix type="matrix" values="0 0 0 0 0 0 0 0 0 0 0 0 0 0 0 0 0 0 0.25 0"/>
<feBlend mode="normal" in2="BackgroundImageFix" result="effect1_dropShadow_983_4705"/>
<feBlend mode="normal" in="SourceGraphic" in2="effect1_dropShadow_983_4705" result="shape"/>
</filter>
<clipPath id="clip0_983_4705">
<rect width="40" height="40" fill="white" transform="matrix(-1 0 0 1 152 0)"/>
</clipPath>
</defs>
</svg>
