<svg width="17" height="16" viewBox="0 0 17 16" fill="none" xmlns="http://www.w3.org/2000/svg">
<path d="M14.8766 6.85722H2.62522C2.46177 6.85583 2.29993 6.88952 2.15062 6.95601C2.0013 7.0225 1.86798 7.12024 1.75966 7.24264C1.65134 7.36505 1.57054 7.50926 1.5227 7.66555C1.47486 7.82185 1.46111 7.98659 1.48236 8.14865L2.31665 14.4344C2.35291 14.711 2.48915 14.9649 2.69968 15.1481C2.9102 15.3312 3.18047 15.431 3.4595 15.4286H14.0195C14.2985 15.431 14.5688 15.3312 14.7793 15.1481C14.9899 14.9649 15.1261 14.711 15.1624 14.4344L15.9966 8.14865C16.0177 7.98849 16.0045 7.8257 15.958 7.67101C15.9115 7.51632 15.8327 7.37325 15.7269 7.25122C15.6211 7.12919 15.4906 7.03098 15.344 6.96307C15.1975 6.89515 15.0382 6.85908 14.8766 6.85722Z" stroke="#262626" stroke-width="1.14286" stroke-linecap="round" stroke-linejoin="round"/>
<path d="M5.89453 9.71436V12.5715" stroke="#262626" stroke-width="1.14286" stroke-linecap="round" stroke-linejoin="round"/>
<path d="M8.75 9.71436V12.5715" stroke="#262626" stroke-width="1.14286" stroke-linecap="round" stroke-linejoin="round"/>
<path d="M11.6074 9.71436V12.5715" stroke="#262626" stroke-width="1.14286" stroke-linecap="round" stroke-linejoin="round"/>
<path d="M11.5859 1.76001C12.2705 1.87828 12.8978 2.21691 13.3723 2.72439C13.8467 3.23188 14.1425 3.88044 14.2145 4.57144L14.4659 6.85715" stroke="#262626" stroke-width="1.14286" stroke-linecap="round" stroke-linejoin="round"/>
<path d="M3.03711 6.85724L3.28854 4.57153C3.36525 3.88463 3.66308 3.24125 4.13717 2.73831C4.61126 2.23536 5.23593 1.90008 5.91711 1.78296" stroke="#262626" stroke-width="1.14286" stroke-linecap="round" stroke-linejoin="round"/>
<path d="M11.6088 2.0001C11.6088 2.18771 11.5719 2.37347 11.5001 2.5468C11.4283 2.72012 11.3231 2.8776 11.1904 3.01026C11.0577 3.14291 10.9003 3.24814 10.7269 3.31993C10.5536 3.39173 10.3678 3.42868 10.1802 3.42868H7.3231C6.94422 3.42868 6.58086 3.27817 6.31295 3.01026C6.04504 2.74235 5.89453 2.37899 5.89453 2.0001C5.89453 1.62122 6.04504 1.25786 6.31295 0.989952C6.58086 0.722043 6.94422 0.571533 7.3231 0.571533H10.1802C10.5591 0.571533 10.9225 0.722043 11.1904 0.989952C11.4583 1.25786 11.6088 1.62122 11.6088 2.0001Z" stroke="#262626" stroke-width="1.14286" stroke-linecap="round" stroke-linejoin="round"/>
</svg>
