<svg width="24" height="24" viewBox="0 0 24 24" fill="none" xmlns="http://www.w3.org/2000/svg">
<g id="Shop" clip-path="url(#clip0_2408_12245)">
<g id="Group">
<path id="Vector" d="M21.188 10.2857H2.81087C2.56571 10.2836 2.32294 10.3342 2.09897 10.4339C1.875 10.5336 1.67502 10.6802 1.51254 10.8638C1.35006 11.0474 1.22885 11.2638 1.15709 11.4982C1.08534 11.7327 1.06471 11.9798 1.09659 12.2228L2.34802 21.6514C2.40241 22.0664 2.60678 22.4472 2.92256 22.722C3.23835 22.9967 3.64374 23.1464 4.0623 23.1428H19.9023C20.3209 23.1464 20.7263 22.9967 21.042 22.722C21.3578 22.4472 21.5622 22.0664 21.6166 21.6514L22.868 12.2228C22.8995 11.9826 22.8798 11.7384 22.81 11.5064C22.7403 11.2744 22.6221 11.0597 22.4634 10.8767C22.3046 10.6937 22.1089 10.5463 21.8891 10.4445C21.6692 10.3426 21.4303 10.2885 21.188 10.2857Z" stroke="#262626" stroke-width="1.71429" stroke-linecap="round" stroke-linejoin="round"/>
<path id="Vector_2" d="M7.71289 14.5714V18.8571" stroke="#262626" stroke-width="1.71429" stroke-linecap="round" stroke-linejoin="round"/>
<path id="Vector_3" d="M12 14.5714V18.8571" stroke="#262626" stroke-width="1.71429" stroke-linecap="round" stroke-linejoin="round"/>
<path id="Vector_4" d="M16.2852 14.5714V18.8571" stroke="#262626" stroke-width="1.71429" stroke-linecap="round" stroke-linejoin="round"/>
<path id="Vector_5" d="M16.25 2.63995C17.2769 2.81736 18.2178 3.32531 18.9295 4.08653C19.6412 4.84775 20.0848 5.8206 20.1929 6.8571L20.57 10.2857" stroke="#262626" stroke-width="1.71429" stroke-linecap="round" stroke-linejoin="round"/>
<path id="Vector_6" d="M3.42773 10.2857L3.80488 6.85711C3.91994 5.82676 4.36669 4.8617 5.07782 4.10728C5.78896 3.35286 6.72597 2.84993 7.74773 2.67426" stroke="#262626" stroke-width="1.71429" stroke-linecap="round" stroke-linejoin="round"/>
<path id="Vector_7" d="M16.2843 2.99997C16.2843 3.28138 16.2289 3.56003 16.1212 3.82001C16.0135 4.07999 15.8557 4.31622 15.6567 4.5152C15.4577 4.71419 15.2215 4.87203 14.9615 4.97972C14.7015 5.0874 14.4229 5.14283 14.1415 5.14283H9.85575C9.28743 5.14283 8.74238 4.91707 8.34052 4.5152C7.93866 4.11334 7.71289 3.56829 7.71289 2.99997C7.71289 2.43165 7.93866 1.88661 8.34052 1.48474C8.74238 1.08288 9.28743 0.857117 9.85575 0.857117H14.1415C14.7098 0.857117 15.2548 1.08288 15.6567 1.48474C16.0586 1.88661 16.2843 2.43165 16.2843 2.99997Z" stroke="#262626" stroke-width="1.71429" stroke-linecap="round" stroke-linejoin="round"/>
</g>
</g>
<defs>
<clipPath id="clip0_2408_12245">
<rect width="24" height="24" fill="white"/>
</clipPath>
</defs>
</svg>
