<svg width="711" height="711" viewBox="0 0 711 711" fill="none" xmlns="http://www.w3.org/2000/svg">
<path d="M357.444 512.312H356.722C213.3 512.534 66.8229 564.026 66.8229 686.562V688.617H642.177V686.562C642.177 571.08 501.477 512.312 357.444 512.312Z" fill="url(#paint0_linear_1062_374)"/>
<path d="M494.756 688.616V640.29C494.756 628.125 484.813 618.127 472.593 618.127H247.961C235.796 618.127 225.798 628.07 225.798 640.29V688.616H494.756Z" fill="#A6A6A6"/>
<path d="M644.955 688.615V686.671C644.955 658.231 632.457 640.345 626.069 624.181L581.298 639.789L599.573 688.671H644.955V688.615ZM113.593 688.615C114.649 682.894 115.26 677.061 115.26 671.062C115.26 648.732 106.261 628.125 90.6525 611.238C75.4882 631.235 67.3228 653.843 67.3228 679.117V688.615H113.593Z" fill="#757575"/>
<path d="M541.027 569.523C477.481 596.796 408.047 609.739 338.947 607.35C304.916 606.171 271.114 601.31 238.129 592.853C220.965 588.464 204.024 583.076 187.471 576.8C172.64 571.134 157.642 565.524 146.699 553.47C136.979 542.749 130.868 527.807 134.146 513.254C137.423 498.812 148.477 486.48 162.03 480.87C177.528 474.427 194.081 475.926 209.245 482.203C224.798 488.702 240.685 494.257 256.904 498.645C323.005 516.587 393.716 515.976 459.539 496.979C468.927 494.257 478.203 491.202 487.368 487.758C496.422 484.37 505.199 479.704 514.697 477.759C530.917 474.427 549.359 477.926 561.968 489.147C574.743 500.534 580.52 518.475 574.966 534.862C569.522 550.748 556.135 563.024 541.027 569.523Z" fill="url(#paint1_linear_1062_374)"/>
<path d="M355.222 564.691C506.064 564.691 628.346 443.603 628.346 294.233C628.346 144.863 506.064 23.7754 355.222 23.7754C204.38 23.7754 82.0983 144.863 82.0983 294.233C82.0983 443.603 204.38 564.691 355.222 564.691Z" fill="#4C4C4C"/>
<path d="M613.182 294.618C613.121 349.2 595.366 402.291 562.579 445.928C559.301 450.372 555.858 454.649 552.303 458.815C538.418 475.054 522.578 489.513 505.143 501.864C478.249 520.963 447.921 534.693 415.824 542.302C412.436 543.19 409.047 543.913 405.603 544.579C372.283 551.148 338.002 551.166 304.675 544.635C301.008 543.913 297.398 543.135 293.843 542.246C260.706 534.211 229.496 519.672 202.024 499.475C185.415 487.366 170.362 473.313 157.253 457.704C154.198 454.093 151.31 450.483 148.477 446.706V446.65C146.533 444.15 144.644 441.595 142.867 438.985C114.038 397.713 97.1515 347.665 97.2626 293.841C97.3737 227.351 123.259 166.749 165.53 121.368C212.856 70.6532 280.567 38.8804 355.611 38.9915C436.598 39.1026 508.92 76.319 556.135 134.365C591.908 178.248 613.293 234.017 613.182 294.618Z" fill="#212121"/>
<path d="M571.466 251.407C571.466 310.342 569.522 380.109 562.579 445.932C559.302 450.376 555.858 454.653 552.303 458.819C538.418 475.058 522.578 489.517 505.143 501.868C478.249 520.967 447.921 534.698 415.824 542.306C412.436 543.195 409.047 543.917 405.603 544.583C372.283 551.152 338.002 551.171 304.675 544.639C301.009 543.917 297.398 543.139 293.843 542.25C260.706 534.215 229.496 519.676 202.024 499.479C185.415 487.37 170.362 473.317 157.253 457.708C154.198 454.098 151.31 450.487 148.477 446.71V446.654C141.478 380.609 139.478 310.564 139.478 251.407C139.478 249.685 138.978 196.138 171.307 146.146C200.024 101.708 254.682 60.1035 358.555 60.1035C472.26 60.1035 525.307 109.985 550.025 158.755C573.355 204.748 571.466 249.852 571.466 251.407Z" fill="#3C2C23"/>
<path d="M571.466 251.407C571.466 310.342 569.522 380.109 562.579 445.932C559.302 450.376 555.858 454.653 552.303 458.819C538.418 475.058 522.578 489.517 505.143 501.868C478.249 520.967 447.921 534.698 415.824 542.306C412.436 543.195 409.047 543.917 405.603 544.583C372.283 551.152 338.002 551.171 304.675 544.639C301.009 543.917 297.398 543.139 293.843 542.25C260.706 534.215 229.496 519.676 202.024 499.479C185.415 487.37 170.362 473.317 157.253 457.708C154.198 454.098 151.254 450.431 148.477 446.654C141.478 380.609 139.478 310.564 139.478 251.407C139.478 249.685 138.978 196.138 171.307 146.146C200.024 101.708 254.682 60.1035 358.555 60.1035C472.26 60.1035 525.307 109.985 550.025 158.755C573.355 204.748 571.466 249.852 571.466 251.407Z" fill="url(#paint2_radial_1062_374)"/>
<path d="M415.879 509.864L415.824 542.303C412.435 543.192 409.047 543.914 405.603 544.581C372.283 551.149 338.002 551.168 304.675 544.636C301.008 543.914 297.398 543.136 293.843 542.248L293.898 509.697L415.879 509.864Z" fill="#7A4C32"/>
<path d="M533.194 312.727C533.194 430.375 460.261 499.864 396.882 522.194C381.885 527.471 367.387 530.137 354.556 530.137C341.613 530.137 327.06 527.416 311.951 522.083C248.628 499.642 175.917 430.209 175.917 312.727C175.917 227.74 204.912 168.86 247.406 134.588C281.829 121.359 318.4 114.598 355.278 114.647C392.272 114.647 427.711 121.312 460.484 133.588C503.644 167.75 533.194 226.963 533.194 312.727Z" fill="#A56C43"/>
<path d="M375.108 377.995C374.553 377.773 373.942 377.606 373.386 377.551H335.725C335.17 377.606 334.559 377.773 334.003 377.995C330.615 379.384 328.726 382.939 330.337 386.66C331.948 390.438 339.447 400.992 354.556 400.992C369.664 400.992 377.163 390.438 378.774 386.66C380.441 382.939 378.552 379.384 375.108 377.995Z" fill="#875334"/>
<path d="M266.958 355.667C281.469 355.667 293.232 343.506 293.232 328.504C293.232 313.503 281.469 301.342 266.958 301.342C252.448 301.342 240.685 313.503 240.685 328.504C240.685 343.506 252.448 355.667 266.958 355.667Z" fill="#42312C"/>
<path d="M442.209 355.667C456.719 355.667 468.482 343.506 468.482 328.504C468.482 313.503 456.719 301.342 442.209 301.342C427.698 301.342 415.935 313.503 415.935 328.504C415.935 343.506 427.698 355.667 442.209 355.667Z" fill="#42312C"/>
<path d="M305.952 279.678C300.953 273.068 289.399 263.402 266.958 263.402C244.517 263.402 232.964 273.012 227.964 279.678C225.742 282.622 226.298 286.01 227.853 288.01C229.297 289.898 233.463 291.676 238.129 290.12C242.74 288.565 251.85 283.844 267.014 283.733C282.178 283.844 291.232 288.51 295.898 290.12C300.509 291.676 304.73 289.954 306.174 288.01C307.619 285.954 308.174 282.566 305.952 279.678ZM481.203 279.678C476.203 273.068 464.65 263.402 442.209 263.402C419.768 263.402 408.214 273.012 403.215 279.678C400.993 282.622 401.548 286.01 403.104 288.01C404.548 289.898 408.714 291.676 413.38 290.12C417.99 288.565 427.1 283.844 442.264 283.733C457.429 283.844 466.483 288.51 471.149 290.12C475.759 291.676 479.981 289.954 481.425 288.01C482.813 285.954 483.369 282.566 481.203 279.678Z" fill="#42312C"/>
<path d="M399.438 421.601C382.496 431.71 326.838 431.71 309.896 421.601C300.175 415.824 290.177 424.656 294.232 433.543C298.231 442.264 328.56 462.427 354.778 462.427C380.996 462.427 410.991 442.208 414.935 433.543C418.99 424.656 409.158 415.768 399.438 421.601Z" fill="#473530"/>
<path d="M358.555 48.8799C137.701 48.8799 139.478 236.962 139.478 240.183C139.478 281.955 140.478 329.169 143.533 376.551L179.694 376.44C179.416 360.72 190.415 263.513 223.187 256.125C343.613 229.074 411.769 165.195 411.769 165.195C429.488 203.911 484.869 241.628 504.81 255.959C521.141 267.735 526.14 355.887 525.807 376.495H567.3C567.3 376.218 567.411 375.94 567.411 375.662C570.411 328.558 571.411 281.621 571.411 240.128C571.466 236.906 579.409 48.8799 358.555 48.8799Z" fill="#3C2C23"/>
<path d="M358.555 48.8799C137.701 48.8799 139.478 236.962 139.478 240.183C139.478 281.955 140.478 329.169 143.533 376.551L179.694 376.44C179.416 360.72 190.415 263.513 223.187 256.125C343.613 229.074 411.769 165.195 411.769 165.195C429.488 203.911 484.869 241.628 504.81 255.959C521.141 267.735 526.14 355.887 525.807 376.495H567.3C567.3 376.218 567.411 375.94 567.411 375.662C570.411 328.558 571.411 281.621 571.411 240.128C571.466 236.906 579.409 48.8799 358.555 48.8799Z" fill="url(#paint3_radial_1062_374)"/>
<path d="M628.402 295.566C628.402 296.899 628.346 298.233 628.346 299.621C610.248 260.995 584.181 226.637 551.858 198.804C524.865 175.472 493.921 157.15 460.484 144.701C426.836 132.124 391.199 125.708 355.278 125.759C317.228 125.759 280.901 132.814 247.406 145.701C214.078 158.421 183.582 177.029 157.142 200.081C125.55 227.722 100.035 261.616 82.2094 299.621C82.2094 298.233 82.0983 296.899 82.0983 295.566C79.7653 146.701 202.746 22.3867 355.278 22.3867C506.143 22.3867 628.402 144.701 628.402 295.566Z" fill="url(#paint4_radial_1062_374)"/>
<defs>
<linearGradient id="paint0_linear_1062_374" x1="354.5" y1="686.673" x2="354.5" y2="512.945" gradientUnits="userSpaceOnUse">
<stop stop-color="#B3B3B3"/>
<stop offset="0.033" stop-color="#B7B7B7"/>
<stop offset="0.374" stop-color="#D9D9D9"/>
<stop offset="0.559" stop-color="#E6E6E6"/>
</linearGradient>
<linearGradient id="paint1_linear_1062_374" x1="355.1" y1="510.277" x2="355.1" y2="610.416" gradientUnits="userSpaceOnUse">
<stop offset="0.004" stop-color="#E6E6E6"/>
<stop offset="0.333" stop-color="#D9D9D9"/>
<stop offset="0.941" stop-color="#B7B7B7"/>
<stop offset="1" stop-color="#B3B3B3"/>
</linearGradient>
<radialGradient id="paint2_radial_1062_374" cx="0" cy="0" r="1" gradientUnits="userSpaceOnUse" gradientTransform="translate(355.489 373.595) scale(231.68 275.723)">
<stop offset="0.794" stop-color="#554138" stop-opacity="0"/>
<stop offset="1" stop-color="#554138"/>
</radialGradient>
<radialGradient id="paint3_radial_1062_374" cx="0" cy="0" r="1" gradientUnits="userSpaceOnUse" gradientTransform="translate(356.183 333.643) scale(238.318 289.199)">
<stop offset="0.794" stop-color="#554138" stop-opacity="0"/>
<stop offset="1" stop-color="#554138"/>
</radialGradient>
<radialGradient id="paint4_radial_1062_374" cx="0" cy="0" r="1" gradientUnits="userSpaceOnUse" gradientTransform="translate(359.488 41.8281) scale(144.427 144.427)">
<stop offset="0.005" stop-color="#F2F2F2"/>
<stop offset="0.422" stop-color="#E5E5E5"/>
<stop offset="1" stop-color="#CCCCCC"/>
</radialGradient>
</defs>
</svg>
