<svg width="21" height="20" viewBox="0 0 21 20" fill="none" xmlns="http://www.w3.org/2000/svg">
<path d="M12.8828 5.74805H16.7793V6.69336H12.8828V5.74805ZM8.97852 9.48828C9.83984 9.07617 10.291 8.44922 10.291 7.48047C10.291 5.56445 8.86523 5.09961 7.21875 5.09961H2.6875V14.7168H7.3457C9.0918 14.7168 10.7305 13.877 10.7305 11.9238C10.7305 10.7168 10.1602 9.82422 8.97852 9.48828ZM4.80078 6.74023H6.7832C7.54688 6.74023 8.23242 6.95312 8.23242 7.83984C8.23242 8.65625 7.69922 8.98438 6.94336 8.98438H4.80078V6.74023ZM7.05664 13.084H4.79883V10.4355H7.10156C8.03125 10.4355 8.61914 10.8242 8.61914 11.8086C8.61914 12.7773 7.91797 13.084 7.05664 13.084ZM18.3027 11.3359C18.3027 9.27539 17.0977 7.55859 14.918 7.55859C12.7988 7.55859 11.3574 9.1543 11.3574 11.2461C11.3574 13.4141 12.7227 14.9023 14.918 14.9023C16.5801 14.9023 17.6562 14.1543 18.1738 12.5586H16.4883C16.3047 13.1543 15.5586 13.4668 14.9785 13.4668C13.8574 13.4668 13.2715 12.8105 13.2715 11.6953H18.2891C18.2949 11.5801 18.3027 11.459 18.3027 11.3359ZM13.2715 10.4883C13.332 9.57227 13.9434 9 14.8574 9C15.8184 9 16.2988 9.56445 16.3828 10.4883H13.2715Z" fill="#797371"/>
</svg>
