<svg width="18" height="24" viewBox="0 0 18 24" fill="none" xmlns="http://www.w3.org/2000/svg">
<path d="M1.49999 23.25C1.28526 23.2493 1.07431 23.1934 0.887493 23.0875C0.69441 22.979 0.533633 22.8211 0.421618 22.63C0.309603 22.4389 0.250374 22.2215 0.249992 22V3.6625C0.233094 2.9129 0.512277 2.18683 1.02703 1.64165C1.54179 1.09648 2.25065 0.776118 2.99999 0.75H15C15.7493 0.776118 16.4582 1.09648 16.9729 1.64165C17.4877 2.18683 17.7669 2.9129 17.75 3.6625V22C17.7487 22.2181 17.6903 22.4321 17.5806 22.6207C17.471 22.8093 17.3139 22.9659 17.125 23.075C16.935 23.1847 16.7194 23.2425 16.5 23.2425C16.2806 23.2425 16.065 23.1847 15.875 23.075L8.78749 19.0625L2.12499 23.0625C1.93693 23.1792 1.72125 23.2439 1.49999 23.25Z" fill="#E1C5B4"/>
</svg>
