<svg width="24" height="24" viewBox="0 0 24 24" fill="none" xmlns="http://www.w3.org/2000/svg">
<g clip-path="url(#clip0_2334_11435)">
<path d="M21.188 10.2857H2.81087C2.56571 10.2836 2.32294 10.3342 2.09897 10.4339C1.875 10.5336 1.67502 10.6802 1.51254 10.8638C1.35006 11.0474 1.22885 11.2638 1.15709 11.4982C1.08534 11.7327 1.06471 11.9798 1.09659 12.2228L2.34802 21.6514C2.40241 22.0664 2.60678 22.4472 2.92256 22.722C3.23835 22.9967 3.64374 23.1464 4.0623 23.1428H19.9023C20.3209 23.1464 20.7263 22.9967 21.042 22.722C21.3578 22.4472 21.5622 22.0664 21.6166 21.6514L22.868 12.2228C22.8995 11.9826 22.8798 11.7384 22.81 11.5064C22.7403 11.2744 22.6221 11.0597 22.4634 10.8767C22.3046 10.6937 22.1089 10.5463 21.8891 10.4445C21.6692 10.3426 21.4303 10.2885 21.188 10.2857Z" stroke="#B3B4B4" stroke-width="1.71429" stroke-linecap="round" stroke-linejoin="round"/>
<path d="M7.71289 14.5714V18.8571" stroke="#B3B4B4" stroke-width="1.71429" stroke-linecap="round" stroke-linejoin="round"/>
<path d="M12 14.5714V18.8571" stroke="#B3B4B4" stroke-width="1.71429" stroke-linecap="round" stroke-linejoin="round"/>
<path d="M16.2852 14.5714V18.8571" stroke="#B3B4B4" stroke-width="1.71429" stroke-linecap="round" stroke-linejoin="round"/>
<path d="M16.25 2.64001C17.2769 2.81742 18.2178 3.32537 18.9295 4.08659C19.6412 4.84782 20.0848 5.82066 20.1929 6.85716L20.57 10.2857" stroke="#B3B4B4" stroke-width="1.71429" stroke-linecap="round" stroke-linejoin="round"/>
<path d="M3.42773 10.2857L3.80488 6.85717C3.91994 5.82682 4.36669 4.86176 5.07782 4.10734C5.78896 3.35292 6.72597 2.84999 7.74773 2.67432" stroke="#B3B4B4" stroke-width="1.71429" stroke-linecap="round" stroke-linejoin="round"/>
<path d="M16.2843 3.00003C16.2843 3.28144 16.2289 3.56009 16.1212 3.82007C16.0135 4.08005 15.8557 4.31628 15.6567 4.51526C15.4577 4.71425 15.2215 4.87209 14.9615 4.97978C14.7015 5.08747 14.4229 5.14289 14.1415 5.14289H9.85575C9.28743 5.14289 8.74238 4.91713 8.34052 4.51526C7.93866 4.1134 7.71289 3.56836 7.71289 3.00003C7.71289 2.43171 7.93866 1.88667 8.34052 1.48481C8.74238 1.08294 9.28743 0.857178 9.85575 0.857178H14.1415C14.7098 0.857178 15.2548 1.08294 15.6567 1.48481C16.0586 1.88667 16.2843 2.43171 16.2843 3.00003Z" stroke="#B3B4B4" stroke-width="1.71429" stroke-linecap="round" stroke-linejoin="round"/>
</g>
<defs>
<clipPath id="clip0_2334_11435">
<rect width="24" height="24" fill="white"/>
</clipPath>
</defs>
</svg>
