<svg width="46" height="46" viewBox="0 0 46 46" fill="none" xmlns="http://www.w3.org/2000/svg">
<path d="M20.1533 6.1897C13.0214 6.20255 9.28666 6.37764 6.89991 8.76437C4.32422 11.3401 4.32422 15.4856 4.32422 23.7766C4.32422 32.0677 4.32422 36.2132 6.89991 38.7889C9.47562 41.3646 13.6211 41.3646 21.9122 41.3646C30.2032 41.3646 34.3488 41.3646 36.9245 38.7889C39.3112 36.4022 39.4864 32.6675 39.4991 25.5355" stroke="white" stroke-width="2.77697" stroke-linecap="round" stroke-linejoin="round"/>
<path d="M21.0875 24.7028C19.7482 7.79357 31.7264 2.99718 41.3129 4.64272C41.7 10.2466 38.958 12.345 33.7362 13.314C34.7446 14.3676 36.5263 15.6935 36.3341 17.3509C36.1973 18.5303 35.3963 19.1089 33.7945 20.2663C30.2839 22.8026 26.2171 24.402 21.0875 24.7028Z" stroke="white" stroke-width="2.77697" stroke-linecap="round" stroke-linejoin="round"/>
<path d="M17.2832 32.1079C20.9858 21.9256 24.6151 18.4755 28.3911 15.446" stroke="white" stroke-width="2.77697" stroke-linecap="round" stroke-linejoin="round"/>
</svg>
