<svg width="17" height="16" viewBox="0 0 17 16" fill="none" xmlns="http://www.w3.org/2000/svg">
<g clip-path="url(#clip0_2334_10150)">
<path d="M6.72733 2.57153L7.21876 1.30296C7.30164 1.08818 7.44745 0.903431 7.6371 0.772919C7.82675 0.642406 8.0514 0.572213 8.28162 0.571533H9.21876C9.44898 0.572213 9.67362 0.642406 9.86327 0.772919C10.0529 0.903431 10.1987 1.08818 10.2816 1.30296L10.773 2.57153L12.4416 3.53153L13.7902 3.32582C14.0147 3.29534 14.2433 3.3323 14.4468 3.43202C14.6503 3.53173 14.8195 3.68969 14.933 3.88582L15.3902 4.68582C15.5073 4.88507 15.5613 5.11517 15.545 5.34573C15.5287 5.57629 15.4428 5.79648 15.2988 5.97725L14.4645 7.0401V8.96011L15.3216 10.023C15.4657 10.2037 15.5515 10.4239 15.5678 10.6545C15.5842 10.885 15.5302 11.1151 15.413 11.3144L14.9559 12.1144C14.8424 12.3105 14.6731 12.4685 14.4696 12.5682C14.2661 12.6679 14.0376 12.7049 13.813 12.6744L12.4645 12.4687L10.7959 13.4287L10.3045 14.6972C10.2216 14.912 10.0758 15.0968 9.88613 15.2273C9.69648 15.3578 9.47183 15.428 9.24162 15.4287H8.28162C8.0514 15.428 7.82675 15.3578 7.6371 15.2273C7.44745 15.0968 7.30164 14.912 7.21876 14.6972L6.72733 13.4287L5.05876 12.4687L3.71019 12.6744C3.48564 12.7049 3.25709 12.6679 3.0536 12.5682C2.8501 12.4685 2.68084 12.3105 2.56733 12.1144L2.11019 11.3144C1.99305 11.1151 1.93908 10.885 1.9554 10.6545C1.97172 10.4239 2.05757 10.2037 2.20162 10.023L3.0359 8.96011V7.0401L2.17876 5.97725C2.03471 5.79648 1.94886 5.57629 1.93254 5.34573C1.91622 5.11517 1.97019 4.88507 2.08733 4.68582L2.54447 3.88582C2.65799 3.68969 2.82724 3.53173 3.03074 3.43202C3.23423 3.3323 3.46278 3.29534 3.68733 3.32582L5.0359 3.53153L6.72733 2.57153Z" stroke="#262626" stroke-width="1.14286" stroke-linecap="round" stroke-linejoin="round"/>
<path d="M8.75084 11.4287C10.6444 11.4287 12.1794 9.89365 12.1794 8.0001C12.1794 6.10656 10.6444 4.57153 8.75084 4.57153C6.85729 4.57153 5.32227 6.10656 5.32227 8.0001C5.32227 9.89365 6.85729 11.4287 8.75084 11.4287Z" stroke="#262626" stroke-width="1.14286" stroke-linecap="round" stroke-linejoin="round"/>
<path d="M8.75 4.57153V8.0001H12.1786" stroke="#262626" stroke-width="1.14286" stroke-linecap="round" stroke-linejoin="round"/>
<path d="M8.75098 8L6.32812 10.4229" stroke="#262626" stroke-width="1.14286" stroke-linecap="round" stroke-linejoin="round"/>
</g>
<defs>
<clipPath id="clip0_2334_10150">
<rect width="16" height="16" fill="white" transform="translate(0.75)"/>
</clipPath>
</defs>
</svg>
