<svg width="50" height="50" viewBox="0 0 50 50" fill="none" xmlns="http://www.w3.org/2000/svg">
<g clip-path="url(#clip0_1565_24254)">
<path d="M21.966 16.8572L22.7031 14.9543C22.8275 14.6321 23.0462 14.355 23.3307 14.1593C23.6151 13.9635 23.9521 13.8582 24.2974 13.8572H25.7031C26.0485 13.8582 26.3854 13.9635 26.6699 14.1593C26.9544 14.355 27.1731 14.6321 27.2974 14.9543L28.0346 16.8572L30.5374 18.2972L32.5603 17.9886C32.8971 17.9429 33.2399 17.9983 33.5452 18.1479C33.8504 18.2975 34.1043 18.5344 34.2746 18.8286L34.9603 20.0286C35.136 20.3275 35.2169 20.6726 35.1925 21.0185C35.168 21.3643 35.0392 21.6946 34.8231 21.9657L33.5717 23.56V26.44L34.8574 28.0343C35.0735 28.3055 35.2023 28.6358 35.2267 28.9816C35.2512 29.3274 35.1703 29.6726 34.9946 29.9715L34.3089 31.1715C34.1386 31.4657 33.8847 31.7026 33.5795 31.8522C33.2742 32.0017 32.9314 32.0572 32.5946 32.0115L30.5717 31.7029L28.0689 33.1429L27.3317 35.0457C27.2074 35.3679 26.9887 35.645 26.7042 35.8408C26.4197 36.0366 26.0828 36.1419 25.7374 36.1429H24.2974C23.9521 36.1419 23.6151 36.0366 23.3307 35.8408C23.0462 35.645 22.8275 35.3679 22.7031 35.0457L21.966 33.1429L19.4631 31.7029L17.4403 32.0115C17.1035 32.0572 16.7606 32.0017 16.4554 31.8522C16.1502 31.7026 15.8963 31.4657 15.726 31.1715L15.0403 29.9715C14.8646 29.6726 14.7836 29.3274 14.8081 28.9816C14.8326 28.6358 14.9614 28.3055 15.1774 28.0343L16.4289 26.44V23.56L15.1431 21.9657C14.9271 21.6946 14.7983 21.3643 14.7738 21.0185C14.7493 20.6726 14.8303 20.3275 15.006 20.0286L15.6917 18.8286C15.862 18.5344 16.1159 18.2975 16.4211 18.1479C16.7264 17.9983 17.0692 17.9429 17.406 17.9886L19.4289 18.2972L21.966 16.8572Z" stroke="#B3B4B4" stroke-width="1.71429" stroke-linecap="round" stroke-linejoin="round"/>
<path d="M25.0003 30.1429C27.8406 30.1429 30.1431 27.8404 30.1431 25C30.1431 22.1597 27.8406 19.8572 25.0003 19.8572C22.16 19.8572 19.8574 22.1597 19.8574 25C19.8574 27.8404 22.16 30.1429 25.0003 30.1429Z" stroke="#B3B4B4" stroke-width="1.71429" stroke-linecap="round" stroke-linejoin="round"/>
<path d="M25 19.8572V25H30.1429" stroke="#B3B4B4" stroke-width="1.71429" stroke-linecap="round" stroke-linejoin="round"/>
<path d="M24.9995 25L21.3652 28.6343" stroke="#B3B4B4" stroke-width="1.71429" stroke-linecap="round" stroke-linejoin="round"/>
</g>
<defs>
<clipPath id="clip0_1565_24254">
<rect width="24" height="24" fill="white" transform="translate(13 13)"/>
</clipPath>
</defs>
</svg>
