<svg width="17" height="16" viewBox="0 0 17 16" fill="none" xmlns="http://www.w3.org/2000/svg">
<g id="facebook-01 1">
<path id="Vector" d="M1.91602 8.00002C1.91602 5.01446 1.91602 3.52168 2.84351 2.59418C3.77101 1.66669 5.26379 1.66669 8.24935 1.66669C11.2349 1.66669 12.7277 1.66669 13.6552 2.59418C14.5827 3.52168 14.5827 5.01446 14.5827 8.00002C14.5827 10.9856 14.5827 12.4784 13.6552 13.4059C12.7277 14.3334 11.2349 14.3334 8.24935 14.3334C5.26379 14.3334 3.77101 14.3334 2.84351 13.4059C1.91602 12.4784 1.91602 10.9856 1.91602 8.00002Z" stroke="#262626" stroke-width="1.5" stroke-linejoin="round"/>
<path id="Vector_2" d="M11.5827 5.83331C11.8588 5.83331 12.0827 5.60945 12.0827 5.33331C12.0827 5.05717 11.8588 4.83331 11.5827 4.83331V5.83331ZM7.74935 14.3333C7.74935 14.6094 7.97322 14.8333 8.24935 14.8333C8.52548 14.8333 8.74935 14.6094 8.74935 14.3333H7.74935ZM6.91602 8.83331C6.63988 8.83331 6.41602 9.05718 6.41602 9.33331C6.41602 9.60945 6.63988 9.83331 6.91602 9.83331V8.83331ZM10.2493 9.83331C10.5255 9.83331 10.7493 9.60945 10.7493 9.33331C10.7493 9.05718 10.5255 8.83331 10.2493 8.83331V9.83331ZM11.5827 4.83331H10.916V5.83331H11.5827V4.83331ZM7.74935 7.99998V14.3333H8.74935V7.99998H7.74935ZM10.916 4.83331C10.3016 4.83331 9.79048 4.83225 9.38635 4.88659C8.96782 4.94286 8.58995 5.06664 8.28635 5.37029L8.99342 6.07739C9.08028 5.99051 9.21195 5.91903 9.51962 5.87767C9.84162 5.83437 10.2733 5.83331 10.916 5.83331V4.83331ZM8.74935 7.99998C8.74935 7.35731 8.75042 6.92558 8.79368 6.60357C8.83508 6.29593 8.90655 6.16427 8.99342 6.07739L8.28635 5.37029C7.98268 5.67393 7.85888 6.0518 7.80262 6.47033C7.74828 6.87445 7.74935 7.38558 7.74935 7.99998H8.74935ZM6.91602 9.83331H10.2493V8.83331H6.91602V9.83331Z" fill="#262626"/>
</g>
</svg>
