<svg width="21" height="20" viewBox="0 0 21 20" fill="none" xmlns="http://www.w3.org/2000/svg">
<path fill-rule="evenodd" clip-rule="evenodd" d="M6.72084 0.888313C7.69834 0.843313 8.01001 0.833313 10.5 0.833313C12.99 0.833313 13.3017 0.844146 14.2783 0.888313C15.255 0.93248 15.9217 1.08831 16.505 1.31415C17.1158 1.54498 17.67 1.90581 18.1283 2.37248C18.595 2.82998 18.955 3.38331 19.185 3.99498C19.4117 4.57831 19.5667 5.24498 19.6117 6.21998C19.6567 7.19915 19.6667 7.51081 19.6667 9.99998C19.6667 12.49 19.6558 12.8016 19.6117 13.7791C19.5675 14.7541 19.4117 15.4208 19.185 16.0041C18.955 16.6159 18.5944 17.1701 18.1283 17.6283C17.67 18.095 17.1158 18.455 16.505 18.685C15.9217 18.9116 15.255 19.0666 14.28 19.1116C13.3017 19.1566 12.99 19.1666 10.5 19.1666C8.01001 19.1666 7.69834 19.1558 6.72084 19.1116C5.74584 19.0675 5.07918 18.9116 4.49584 18.685C3.88411 18.4549 3.32986 18.0944 2.87168 17.6283C2.40533 17.1705 2.04444 16.6165 1.81418 16.005C1.58834 15.4216 1.43334 14.755 1.38834 13.78C1.34334 12.8008 1.33334 12.4891 1.33334 9.99998C1.33334 7.50998 1.34418 7.19831 1.38834 6.22165C1.43251 5.24498 1.58834 4.57831 1.81418 3.99498C2.04478 3.38338 2.40594 2.82941 2.87251 2.37165C3.33004 1.9054 3.88374 1.54452 4.49501 1.31415C5.07834 1.08831 5.74501 0.933313 6.72001 0.888313H6.72084ZM14.2042 2.53831C13.2375 2.49415 12.9475 2.48498 10.5 2.48498C8.05251 2.48498 7.76251 2.49415 6.79584 2.53831C5.90168 2.57915 5.41668 2.72831 5.09334 2.85415C4.66584 3.02081 4.36001 3.21831 4.03918 3.53915C3.73505 3.83502 3.50099 4.19521 3.35418 4.59331C3.22834 4.91665 3.07918 5.40165 3.03834 6.29581C2.99418 7.26248 2.98501 7.55248 2.98501 9.99998C2.98501 12.4475 2.99418 12.7375 3.03834 13.7041C3.07918 14.5983 3.22834 15.0833 3.35418 15.4066C3.50084 15.8041 3.73501 16.165 4.03918 16.4608C4.33501 16.765 4.69584 16.9991 5.09334 17.1458C5.41668 17.2716 5.90168 17.4208 6.79584 17.4616C7.76251 17.5058 8.05168 17.515 10.5 17.515C12.9483 17.515 13.2375 17.5058 14.2042 17.4616C15.0983 17.4208 15.5833 17.2716 15.9067 17.1458C16.3342 16.9791 16.64 16.7816 16.9608 16.4608C17.265 16.165 17.4992 15.8041 17.6458 15.4066C17.7717 15.0833 17.9208 14.5983 17.9617 13.7041C18.0058 12.7375 18.015 12.4475 18.015 9.99998C18.015 7.55248 18.0058 7.26248 17.9617 6.29581C17.9208 5.40165 17.7717 4.91665 17.6458 4.59331C17.4792 4.16581 17.2817 3.85998 16.9608 3.53915C16.6649 3.23504 16.3048 3.00099 15.9067 2.85415C15.5833 2.72831 15.0983 2.57915 14.2042 2.53831ZM9.32918 12.8258C9.98306 13.098 10.7112 13.1347 11.3891 12.9297C12.0671 12.7248 12.6528 12.2907 13.0464 11.7018C13.4399 11.113 13.6167 10.4057 13.5467 9.7009C13.4767 8.99609 13.1642 8.33746 12.6625 7.83748C12.3427 7.51788 11.956 7.27316 11.5303 7.12093C11.1046 6.96871 10.6504 6.91278 10.2004 6.95716C9.75048 7.00154 9.31597 7.14513 8.92818 7.37759C8.54039 7.61005 8.20896 7.9256 7.95776 8.30152C7.70656 8.67744 7.54183 9.10439 7.47544 9.55161C7.40905 9.99884 7.44264 10.4552 7.57379 10.8879C7.70495 11.3206 7.93041 11.7188 8.23394 12.0539C8.53748 12.389 8.91153 12.6526 9.32918 12.8258ZM7.16834 6.66831C7.60586 6.23079 8.12528 5.88373 8.69692 5.64695C9.26857 5.41016 9.88126 5.28829 10.5 5.28829C11.1188 5.28829 11.7314 5.41016 12.3031 5.64695C12.8747 5.88373 13.3942 6.23079 13.8317 6.66831C14.2692 7.10583 14.6163 7.62525 14.853 8.19689C15.0898 8.76854 15.2117 9.38123 15.2117 9.99998C15.2117 10.6187 15.0898 11.2314 14.853 11.8031C14.6163 12.3747 14.2692 12.8941 13.8317 13.3316C12.9481 14.2153 11.7496 14.7117 10.5 14.7117C9.25039 14.7117 8.05196 14.2153 7.16834 13.3316C6.28473 12.448 5.78832 11.2496 5.78832 9.99998C5.78832 8.75036 6.28473 7.55193 7.16834 6.66831ZM16.2567 5.98998C16.3651 5.8877 16.4519 5.76471 16.5119 5.62829C16.572 5.49187 16.604 5.34479 16.6062 5.19575C16.6084 5.04672 16.5806 4.89877 16.5246 4.76065C16.4685 4.62254 16.3854 4.49707 16.28 4.39168C16.1746 4.28629 16.0491 4.20311 15.911 4.14708C15.7729 4.09104 15.6249 4.06329 15.4759 4.06547C15.3269 4.06764 15.1798 4.09969 15.0434 4.15973C14.9069 4.21976 14.784 4.30656 14.6817 4.41498C14.4828 4.62584 14.3739 4.90591 14.3781 5.19575C14.3823 5.48559 14.4993 5.76238 14.7043 5.96735C14.9093 6.17232 15.1861 6.28934 15.4759 6.29356C15.7657 6.29779 16.0458 6.18889 16.2567 5.98998Z" fill="#797371"/>
</svg>
