<svg width="21" height="20" viewBox="0 0 21 20" fill="none" xmlns="http://www.w3.org/2000/svg">
<path d="M5.5 3C5.5 4.062 4.79 4.976 3.499 4.976C2.284 4.976 1.5 4.114 1.5 3.052C1.5 1.962 2.26 1 3.5 1C4.74 1 5.476 1.91 5.5 3ZM1.5 19V6H5.5V19H1.5Z" fill="#797371"/>
<path d="M7.50001 10.4441C7.50001 8.89906 7.44901 7.60806 7.39801 6.49306H10.992L11.17 8.21606H11.246C11.752 7.40506 12.992 6.21606 15.068 6.21606C17.6 6.21606 19.5 7.91106 19.5 11.5581V19.0001H15.5V12.1391C15.5 10.5451 14.893 9.32906 13.5 9.32906C12.438 9.32906 11.906 10.1891 11.627 10.8981C11.525 11.1521 11.5 11.5061 11.5 11.8611V19.0001H7.50001V10.4441Z" fill="#797371"/>
</svg>
