<svg width="25" height="24" viewBox="0 0 25 24" fill="none" xmlns="http://www.w3.org/2000/svg">
<g id="Frame" clip-path="url(#clip0_2357_417)">
<g id="Group">
<g id="Group_2">
<path id="Vector" d="M12.5 17.1771V18.9086" stroke="#B3B4B4" stroke-width="1.71429" stroke-linecap="round" stroke-linejoin="round"/>
<path id="Vector_2" d="M12.5 8.5885V10.1999" stroke="#B3B4B4" stroke-width="1.71429" stroke-linecap="round" stroke-linejoin="round"/>
</g>
<path id="Vector_3" d="M12.5006 23.1257C18.5006 23.1257 22.7863 20.9999 22.7863 16.2685C22.7863 11.1257 20.2148 7.69709 15.072 5.12566L17.0948 2.51995C17.1976 2.34899 17.2534 2.15389 17.2564 1.95444C17.2595 1.75499 17.2098 1.55827 17.1123 1.38423C17.0148 1.21019 16.8731 1.06501 16.7014 0.963401C16.5298 0.861796 16.3343 0.807378 16.1348 0.805664H8.86627C8.66681 0.807378 8.47134 0.861796 8.29968 0.963401C8.12802 1.06501 7.98628 1.21019 7.88882 1.38423C7.79135 1.55827 7.74163 1.75499 7.7447 1.95444C7.74776 2.15389 7.80351 2.34899 7.90627 2.51995L9.92913 5.14281C4.78627 7.73138 2.21484 11.1599 2.21484 16.3028C2.21484 20.9999 6.50056 23.1257 12.5006 23.1257Z" stroke="#B3B4B4" stroke-width="1.71429" stroke-linecap="round" stroke-linejoin="round"/>
<path id="Vector_4" d="M10.7867 16.3885C10.9958 16.6368 11.2591 16.8339 11.5562 16.9646C11.8534 17.0954 12.1766 17.1563 12.5009 17.1428C12.9967 17.1766 13.4863 17.0168 13.8667 16.6971C14.2472 16.3774 14.4888 15.9227 14.5409 15.4285C14.4888 14.9343 14.2472 14.4796 13.8667 14.1599C13.4863 13.8402 12.9967 13.6804 12.5009 13.7142C12.0052 13.748 11.5156 13.5883 11.1351 13.2686C10.7547 12.9489 10.513 12.4941 10.4609 11.9999C10.5088 11.504 10.7493 11.0466 11.1308 10.7261C11.5122 10.4056 12.0042 10.2474 12.5009 10.2856C12.8196 10.2661 13.1386 10.3175 13.435 10.4361C13.7315 10.5547 13.9979 10.7375 14.2152 10.9714" stroke="#B3B4B4" stroke-width="1.71429" stroke-linecap="round" stroke-linejoin="round"/>
</g>
</g>
<defs>
<clipPath id="clip0_2357_417">
<rect width="24" height="24" fill="white" transform="translate(0.5)"/>
</clipPath>
</defs>
</svg>
