<svg width="50" height="50" viewBox="0 0 50 50" fill="none" xmlns="http://www.w3.org/2000/svg">
<g clip-path="url(#clip0_1565_24268)">
<path d="M25 30.1772V31.9087" stroke="#B3B4B4" stroke-width="1.71429" stroke-linecap="round" stroke-linejoin="round"/>
<path d="M25 21.5886V23.2001" stroke="#B3B4B4" stroke-width="1.71429" stroke-linecap="round" stroke-linejoin="round"/>
<path d="M25.0006 36.1257C31.0006 36.1257 35.2863 33.9999 35.2863 29.2685C35.2863 24.1257 32.7148 20.6971 27.572 18.1257L29.5948 15.5199C29.6976 15.349 29.7534 15.1539 29.7564 14.9544C29.7595 14.755 29.7098 14.5583 29.6123 14.3842C29.5148 14.2102 29.3731 14.065 29.2014 13.9634C29.0298 13.8618 28.8343 13.8074 28.6348 13.8057H21.3663C21.1668 13.8074 20.9713 13.8618 20.7997 13.9634C20.628 14.065 20.4863 14.2102 20.3888 14.3842C20.2914 14.5583 20.2416 14.755 20.2447 14.9544C20.2478 15.1539 20.3035 15.349 20.4063 15.5199L22.4291 18.1428C17.2863 20.7314 14.7148 24.1599 14.7148 29.3028C14.7148 33.9999 19.0006 36.1257 25.0006 36.1257Z" stroke="#B3B4B4" stroke-width="1.71429" stroke-linecap="round" stroke-linejoin="round"/>
<path d="M23.2867 29.3885C23.4958 29.6368 23.7591 29.8339 24.0562 29.9646C24.3534 30.0954 24.6766 30.1563 25.0009 30.1428C25.4967 30.1766 25.9863 30.0168 26.3667 29.6971C26.7472 29.3774 26.9888 28.9227 27.0409 28.4285C26.9888 27.9343 26.7472 27.4796 26.3667 27.1599C25.9863 26.8402 25.4967 26.6804 25.0009 26.7142C24.5052 26.748 24.0156 26.5883 23.6351 26.2686C23.2547 25.9489 23.013 25.4941 22.9609 24.9999C23.0088 24.504 23.2493 24.0466 23.6308 23.7261C24.0122 23.4056 24.5042 23.2474 25.0009 23.2856C25.3196 23.2661 25.6386 23.3175 25.935 23.4361C26.2315 23.5547 26.4979 23.7375 26.7152 23.9714" stroke="#B3B4B4" stroke-width="1.71429" stroke-linecap="round" stroke-linejoin="round"/>
</g>
<defs>
<clipPath id="clip0_1565_24268">
<rect width="24" height="24" fill="white" transform="translate(13 13)"/>
</clipPath>
</defs>
</svg>
