<svg width="24" height="24" viewBox="0 0 24 24" fill="none" xmlns="http://www.w3.org/2000/svg">
<g id="Frame" clip-path="url(#clip0_2357_9546)">
<g id="Group">
<path id="Vector" d="M12.6174 23.0229C12.2203 23.1761 11.7803 23.1761 11.3831 23.0229C8.28147 21.8067 5.61821 19.6841 3.74065 16.932C1.86309 14.1799 0.858341 10.9259 0.857422 7.59429V2.57143C0.857422 2.11678 1.03803 1.68074 1.35952 1.35925C1.68102 1.03776 2.11705 0.857147 2.57171 0.857147H21.4289C21.8835 0.857147 22.3195 1.03776 22.641 1.35925C22.9625 1.68074 23.1431 2.11678 23.1431 2.57143V7.57715C23.1457 10.9117 22.1425 14.1694 20.2647 16.9249C18.387 19.6804 15.7218 21.8056 12.6174 23.0229Z" stroke="#B3B4B4" stroke-width="1.71429" stroke-linecap="round" stroke-linejoin="round"/>
<path id="Vector_2" d="M12.0006 13.7143C14.3675 13.7143 16.2863 11.7955 16.2863 9.42857C16.2863 7.06163 14.3675 5.14285 12.0006 5.14285C9.63362 5.14285 7.71484 7.06163 7.71484 9.42857C7.71484 11.7955 9.63362 13.7143 12.0006 13.7143Z" stroke="#B3B4B4" stroke-width="1.71429" stroke-linecap="round" stroke-linejoin="round"/>
<path id="Vector_3" d="M5.57227 19.1829C6.37662 18.2708 7.36585 17.5404 8.47423 17.04C9.58261 16.5397 10.7848 16.2809 12.0008 16.2809C13.2169 16.2809 14.4191 16.5397 15.5274 17.04C16.6358 17.5404 17.625 18.2708 18.4294 19.1829" stroke="#B3B4B4" stroke-width="1.71429" stroke-linecap="round" stroke-linejoin="round"/>
</g>
</g>
<defs>
<clipPath id="clip0_2357_9546">
<rect width="24" height="24" fill="white"/>
</clipPath>
</defs>
</svg>
