<svg width="24" height="24" viewBox="0 0 24 24" fill="none" xmlns="http://www.w3.org/2000/svg">
<g id="Frame" clip-path="url(#clip0_1505_19657)">
<g id="Group">
<path id="Vector" d="M12.6174 23.0229C12.2203 23.1761 11.7803 23.1761 11.3831 23.0229C8.28147 21.8067 5.61821 19.6842 3.74065 16.932C1.86309 14.1799 0.858341 10.9259 0.857422 7.59432V2.57146C0.857422 2.11681 1.03803 1.68077 1.35952 1.35928C1.68102 1.03779 2.11705 0.857178 2.57171 0.857178H21.4289C21.8835 0.857178 22.3195 1.03779 22.641 1.35928C22.9625 1.68077 23.1431 2.11681 23.1431 2.57146V7.57718C23.1457 10.9117 22.1425 14.1694 20.2647 16.925C18.387 19.6805 15.7218 21.8056 12.6174 23.0229Z" stroke="#262626" stroke-width="1.71429" stroke-linecap="round" stroke-linejoin="round"/>
<path id="Vector_2" d="M12.0006 13.7144C14.3675 13.7144 16.2863 11.7956 16.2863 9.42866C16.2863 7.06172 14.3675 5.14294 12.0006 5.14294C9.63362 5.14294 7.71484 7.06172 7.71484 9.42866C7.71484 11.7956 9.63362 13.7144 12.0006 13.7144Z" stroke="#262626" stroke-width="1.71429" stroke-linecap="round" stroke-linejoin="round"/>
<path id="Vector_3" d="M5.57227 19.1828C6.37662 18.2708 7.36585 17.5403 8.47423 17.04C9.58261 16.5396 10.7848 16.2809 12.0008 16.2809C13.2169 16.2809 14.4191 16.5396 15.5274 17.04C16.6358 17.5403 17.625 18.2708 18.4294 19.1828" stroke="#262626" stroke-width="1.71429" stroke-linecap="round" stroke-linejoin="round"/>
</g>
</g>
<defs>
<clipPath id="clip0_1505_19657">
<rect width="24" height="24" fill="white"/>
</clipPath>
</defs>
</svg>
