<svg width="50" height="50" viewBox="0 0 50 50" fill="none" xmlns="http://www.w3.org/2000/svg">
<g clip-path="url(#clip0_1565_24255)">
<path d="M25.6174 36.0229C25.2203 36.1761 24.7803 36.1761 24.3831 36.0229C21.2815 34.8067 18.6182 32.6842 16.7407 29.932C14.8631 27.1799 13.8583 23.9259 13.8574 20.5943V15.5715C13.8574 15.1168 14.038 14.6808 14.3595 14.3593C14.681 14.0378 15.1171 13.8572 15.5717 13.8572H34.4289C34.8835 13.8572 35.3195 14.0378 35.641 14.3593C35.9625 14.6808 36.1431 15.1168 36.1431 15.5715V20.5772C36.1457 23.9117 35.1425 27.1694 33.2647 29.925C31.387 32.6805 28.7218 34.8056 25.6174 36.0229Z" stroke="#B3B4B4" stroke-width="1.71429" stroke-linecap="round" stroke-linejoin="round"/>
<path d="M25.0006 26.7144C27.3675 26.7144 29.2863 24.7956 29.2863 22.4287C29.2863 20.0617 27.3675 18.1429 25.0006 18.1429C22.6336 18.1429 20.7148 20.0617 20.7148 22.4287C20.7148 24.7956 22.6336 26.7144 25.0006 26.7144Z" stroke="#B3B4B4" stroke-width="1.71429" stroke-linecap="round" stroke-linejoin="round"/>
<path d="M18.5723 32.1828C19.3766 31.2708 20.3658 30.5403 21.4742 30.04C22.5826 29.5396 23.7848 29.2809 25.0008 29.2809C26.2169 29.2809 27.4191 29.5396 28.5274 30.04C29.6358 30.5403 30.625 31.2708 31.4294 32.1828" stroke="#B3B4B4" stroke-width="1.71429" stroke-linecap="round" stroke-linejoin="round"/>
</g>
<defs>
<clipPath id="clip0_1565_24255">
<rect width="24" height="24" fill="white" transform="translate(13 13)"/>
</clipPath>
</defs>
</svg>
