<svg width="33" height="32" viewBox="0 0 33 32" fill="none" xmlns="http://www.w3.org/2000/svg">
<rect x="1" y="0.5" width="31" height="31" fill="black"/>
<path d="M11.376 19.62C14.136 19.62 15.156 18.42 15.156 16.176V11.46H12.756V16.152C12.756 17.148 12.66 17.436 11.376 17.436C10.08 17.436 10.02 17.124 10.02 16.032V15.744H7.62V16.056C7.62 18.384 8.628 19.62 11.376 19.62ZM20.1608 19.62C23.0288 19.62 24.6608 17.988 24.6608 15.48C24.6608 12.972 23.0288 11.34 20.1608 11.34C17.3648 11.34 15.7088 12.972 15.7088 15.48C15.7088 17.988 17.3648 19.62 20.1608 19.62ZM20.1608 17.46C18.5288 17.46 18.1088 17.076 18.1088 15.48C18.1088 13.884 18.5288 13.5 20.1608 13.5C21.7928 13.5 22.2608 13.884 22.2608 15.48C22.2608 17.076 21.7928 17.46 20.1608 17.46Z" fill="#E1C5B4"/>
<g clip-path="url(#clip0_756_2065)">
<path d="M25 8.7143C25.9862 8.7143 26.7857 7.91481 26.7857 6.92858C26.7857 5.94236 25.9862 5.14287 25 5.14287C24.0138 5.14287 23.2143 5.94236 23.2143 6.92858C23.2143 7.91481 24.0138 8.7143 25 8.7143Z" stroke="#E1C5B4" stroke-width="0.714286" stroke-linecap="round" stroke-linejoin="round"/>
<path d="M21.5 12.6429C21.6639 11.8355 22.1019 11.1097 22.7398 10.5883C23.3777 10.0669 24.1762 9.78214 25 9.78214C25.8238 9.78214 26.6223 10.0669 27.2602 10.5883C27.8981 11.1097 28.3361 11.8355 28.5 12.6429" stroke="#E1C5B4" stroke-width="0.714286" stroke-linecap="round" stroke-linejoin="round"/>
<path d="M28.9286 3.35715H21.0714C20.6769 3.35715 20.3571 3.67694 20.3571 4.07143V11.9286C20.3571 12.3231 20.6769 12.6429 21.0714 12.6429H28.9286C29.3231 12.6429 29.6429 12.3231 29.6429 11.9286V4.07143C29.6429 3.67694 29.3231 3.35715 28.9286 3.35715Z" stroke="#E1C5B4" stroke-width="0.714286" stroke-linecap="round" stroke-linejoin="round"/>
</g>
<rect x="1" y="0.5" width="31" height="31" stroke="#E1C5B4"/>
<defs>
<clipPath id="clip0_756_2065">
<rect width="10" height="10" fill="white" transform="translate(20 3)"/>
</clipPath>
</defs>
</svg>
