<svg width="25" height="24" viewBox="0 0 25 24" fill="none" xmlns="http://www.w3.org/2000/svg">
<g id="Frame">
<g id="Group">
<path id="Vector" d="M16.7849 2.57141H19.3563C19.811 2.57141 20.247 2.75202 20.5685 3.07351C20.89 3.395 21.0706 3.83104 21.0706 4.2857V21.4286C21.0706 21.8832 20.89 22.3192 20.5685 22.6407C20.247 22.9622 19.811 23.1428 19.3563 23.1428H5.64202C5.18736 23.1428 4.75133 22.9622 4.42984 22.6407C4.10835 22.3192 3.92773 21.8832 3.92773 21.4286V4.2857C3.92773 3.83104 4.10835 3.395 4.42984 3.07351C4.75133 2.75202 5.18736 2.57141 5.64202 2.57141H8.21345" stroke="#B3B4B4" stroke-width="1.71429" stroke-linecap="round" stroke-linejoin="round"/>
<path id="Vector_2" d="M15.07 0.857178H9.92718C8.9804 0.857178 8.21289 1.62469 8.21289 2.57146V3.42861C8.21289 4.37538 8.9804 5.14289 9.92718 5.14289H15.07C16.0168 5.14289 16.7843 4.37538 16.7843 3.42861V2.57146C16.7843 1.62469 16.0168 0.857178 15.07 0.857178Z" stroke="#B3B4B4" stroke-width="1.71429" stroke-linecap="round" stroke-linejoin="round"/>
<path id="Vector_3" d="M15.9275 13.7144H9.07031" stroke="#B3B4B4" stroke-width="1.71429" stroke-linecap="round" stroke-linejoin="round"/>
</g>
</g>
</svg>
