<svg width="24" height="24" viewBox="0 0 24 24" fill="none" xmlns="http://www.w3.org/2000/svg">
<g id="Frame">
<g id="Group">
<path id="Vector" d="M16.2849 2.57141H18.8563C19.311 2.57141 19.747 2.75202 20.0685 3.07351C20.39 3.395 20.5706 3.83104 20.5706 4.2857V21.4286C20.5706 21.8832 20.39 22.3192 20.0685 22.6407C19.747 22.9622 19.311 23.1428 18.8563 23.1428H5.14202C4.68736 23.1428 4.25133 22.9622 3.92984 22.6407C3.60835 22.3192 3.42773 21.8832 3.42773 21.4286V4.2857C3.42773 3.83104 3.60835 3.395 3.92984 3.07351C4.25133 2.75202 4.68736 2.57141 5.14202 2.57141H7.71345" stroke="#262626" stroke-width="1.71429" stroke-linecap="round" stroke-linejoin="round"/>
<path id="Vector_2" d="M14.57 0.857178H9.42718C8.4804 0.857178 7.71289 1.62469 7.71289 2.57146V3.42861C7.71289 4.37538 8.4804 5.14289 9.42718 5.14289H14.57C15.5168 5.14289 16.2843 4.37538 16.2843 3.42861V2.57146C16.2843 1.62469 15.5168 0.857178 14.57 0.857178Z" stroke="#262626" stroke-width="1.71429" stroke-linecap="round" stroke-linejoin="round"/>
<path id="Vector_3" d="M15.4275 13.7144H8.57031" stroke="#262626" stroke-width="1.71429" stroke-linecap="round" stroke-linejoin="round"/>
</g>
</g>
</svg>
