<svg width="24" height="24" viewBox="0 0 24 24" fill="none" xmlns="http://www.w3.org/2000/svg">
<g id="quill-write-02 1">
<path id="Vector" d="M10.5502 3C6.69782 3.00694 4.6805 3.10152 3.39128 4.39073C2 5.78202 2 8.02125 2 12.4997C2 16.9782 2 19.2174 3.39128 20.6087C4.78257 22 7.0218 22 11.5003 22C15.9787 22 18.218 22 19.6093 20.6087C20.8985 19.3195 20.9931 17.3022 21 13.4498" stroke="#797371" stroke-width="1.5" stroke-linecap="round" stroke-linejoin="round"/>
<path id="Vector_2" d="M11.0557 13C10.3323 3.86635 16.8024 1.27554 21.9806 2.16439C22.1897 5.19136 20.7086 6.32482 17.888 6.84825C18.4327 7.41736 19.3951 8.13354 19.2913 9.02879C19.2174 9.66586 18.7847 9.97843 17.9195 10.6036C16.0232 11.9736 13.8265 12.8375 11.0557 13Z" stroke="#797371" stroke-width="1.5" stroke-linecap="round" stroke-linejoin="round"/>
<path id="Vector_3" d="M9 17C11 11.5 12.9604 9.63636 15 8" stroke="#797371" stroke-width="1.5" stroke-linecap="round" stroke-linejoin="round"/>
</g>
</svg>
