<svg width="50" height="50" viewBox="0 0 50 50" fill="none" xmlns="http://www.w3.org/2000/svg">
<path d="M29.2849 15.5715H31.8563C32.311 15.5715 32.747 15.7521 33.0685 16.0736C33.39 16.3951 33.5706 16.8312 33.5706 17.2858V34.4287C33.5706 34.8833 33.39 35.3194 33.0685 35.6409C32.747 35.9623 32.311 36.143 31.8563 36.143H18.142C17.6874 36.143 17.2513 35.9623 16.9298 35.6409C16.6083 35.3194 16.4277 34.8833 16.4277 34.4287V17.2858C16.4277 16.8312 16.6083 16.3951 16.9298 16.0736C17.2513 15.7521 17.6874 15.5715 18.142 15.5715H20.7134" stroke="#B3B4B4" stroke-width="1.71429" stroke-linecap="round" stroke-linejoin="round"/>
<path d="M27.57 13.8572H22.4272C21.4804 13.8572 20.7129 14.6247 20.7129 15.5715V16.4286C20.7129 17.3754 21.4804 18.1429 22.4272 18.1429H27.57C28.5168 18.1429 29.2843 17.3754 29.2843 16.4286V15.5715C29.2843 14.6247 28.5168 13.8572 27.57 13.8572Z" stroke="#B3B4B4" stroke-width="1.71429" stroke-linecap="round" stroke-linejoin="round"/>
<path d="M28.4275 26.7144H21.5703" stroke="#B3B4B4" stroke-width="1.71429" stroke-linecap="round" stroke-linejoin="round"/>
</svg>
