<svg width="20" height="20" viewBox="0 0 20 20" fill="none" xmlns="http://www.w3.org/2000/svg">
<g clip-path="url(#clip0_2334_10125)">
<path d="M4.81445 8.35712L8.44302 2.55712C8.58365 2.32788 8.78125 2.13896 9.01658 2.00878C9.25192 1.87859 9.51695 1.81158 9.78588 1.81426C9.99768 1.80662 10.2089 1.84151 10.407 1.91687C10.605 1.99224 10.786 2.10655 10.9392 2.25304C11.0923 2.39954 11.2146 2.57525 11.2986 2.76979C11.3827 2.96434 11.427 3.17376 11.4287 3.38569V7.54284H17.7002C17.9319 7.55035 18.1594 7.60683 18.3678 7.70857C18.5761 7.8103 18.7606 7.95498 18.909 8.1331C19.0574 8.31122 19.1665 8.51873 19.229 8.74201C19.2915 8.96528 19.306 9.19926 19.2716 9.42855L18.1287 16.8C18.08 17.1939 17.889 17.5565 17.5918 17.8196C17.2945 18.0826 16.9114 18.2281 16.5145 18.2286H7.14302C6.69691 18.2303 6.25658 18.1276 5.85731 17.9286L4.82874 17.4143" stroke="#262626" stroke-width="1.42857" stroke-linecap="round" stroke-linejoin="round"/>
<path d="M4.81445 8.35718V17.3715" stroke="#262626" stroke-width="1.42857" stroke-linecap="round" stroke-linejoin="round"/>
<path d="M1.42913 8.35718H4.81484V17.3715H1.42913C1.23969 17.3715 1.05801 17.2962 0.924053 17.1623C0.790099 17.0283 0.714844 16.8466 0.714844 16.6572V9.07146C0.714844 8.88202 0.790099 8.70034 0.924053 8.56639C1.05801 8.43243 1.23969 8.35718 1.42913 8.35718Z" stroke="#262626" stroke-width="1.42857" stroke-linecap="round" stroke-linejoin="round"/>
</g>
<defs>
<clipPath id="clip0_2334_10125">
<rect width="20" height="20" fill="white"/>
</clipPath>
</defs>
</svg>
