<svg width="16" height="16" viewBox="0 0 16 16" fill="none" xmlns="http://www.w3.org/2000/svg">
<g id="Frame" clip-path="url(#clip0_2437_1544)">
<g id="Group">
<path id="Vector" d="M3.85156 6.68573L6.75442 2.04573C6.86692 1.86234 7.025 1.7112 7.21327 1.60706C7.40153 1.50291 7.61356 1.4493 7.82871 1.45145C7.99815 1.44533 8.16709 1.47324 8.32556 1.53354C8.48403 1.59383 8.62881 1.68527 8.75133 1.80247C8.87385 1.91967 8.97164 2.06024 9.03891 2.21587C9.10618 2.37151 9.14157 2.53905 9.14299 2.70859V6.03431H14.1601C14.3455 6.04032 14.5275 6.0855 14.6942 6.16689C14.8609 6.24828 15.0085 6.36402 15.1272 6.50652C15.2459 6.64901 15.3332 6.81502 15.3832 6.99364C15.4332 7.17226 15.4448 7.35944 15.4173 7.54288L14.503 13.44C14.464 13.7552 14.3112 14.0452 14.0734 14.2557C13.8356 14.4661 13.5291 14.5825 13.2116 14.5829H5.71442C5.35753 14.5843 5.00527 14.5021 4.68585 14.3429L3.86299 13.9314" stroke="white" stroke-linecap="round" stroke-linejoin="round"/>
<path id="Vector_2" d="M3.85156 6.68573V13.8972" stroke="white" stroke-linecap="round" stroke-linejoin="round"/>
<path id="Vector_3" d="M1.14369 6.68573H3.85227V13.8972H1.14369C0.992142 13.8972 0.846797 13.837 0.739633 13.7298C0.63247 13.6226 0.572266 13.4773 0.572266 13.3257V7.25716C0.572266 7.10561 0.63247 6.96026 0.739633 6.8531C0.846797 6.74593 0.992142 6.68573 1.14369 6.68573Z" stroke="white" stroke-linecap="round" stroke-linejoin="round"/>
</g>
</g>
<defs>
<clipPath id="clip0_2437_1544">
<rect width="16" height="16" fill="white"/>
</clipPath>
</defs>
</svg>
