<svg width="21" height="20" viewBox="0 0 21 20" fill="none" xmlns="http://www.w3.org/2000/svg">
<g clip-path="url(#clip0_756_2043)">
<path d="M19.6667 2.50829C19.6667 2.50829 17.985 3.50162 17.05 3.78329C16.5481 3.20621 15.8811 2.7972 15.1392 2.61156C14.3973 2.42592 13.6163 2.47262 12.9017 2.74533C12.1872 3.01805 11.5737 3.50362 11.1442 4.13639C10.7146 4.76915 10.4898 5.51857 10.5 6.28329V7.11662C9.03554 7.1546 7.5844 6.8298 6.27585 6.17116C4.9673 5.51252 3.84194 4.54048 3.00001 3.34162C3.00001 3.34162 -0.333323 10.8416 7.16668 14.175C5.45045 15.3399 3.40597 15.9241 1.33334 15.8416C8.83334 20.0083 18 15.8416 18 6.25829C18 6.02662 17.9767 5.79495 17.9333 5.56662C18.7833 4.72829 19.6667 2.50829 19.6667 2.50829Z" stroke="#797371" stroke-width="1.5" stroke-linecap="round" stroke-linejoin="round"/>
</g>
<defs>
<clipPath id="clip0_756_2043">
<rect width="20" height="20" fill="white" transform="translate(0.5)"/>
</clipPath>
</defs>
</svg>
