<svg width="24" height="24" viewBox="0 0 24 24" fill="none" xmlns="http://www.w3.org/2000/svg">
<path fill-rule="evenodd" clip-rule="evenodd" d="M1.61898 3.6021C0.759519 5.68382 0.169268 7.6635 0.0358764 8.91165C-0.109429 10.2713 0.184959 11.3457 0.94984 12.2472C1.50188 12.8979 2.16599 13.3787 3.46167 14.0656C3.87025 14.2823 4.24504 14.5092 4.32641 14.5893C4.45899 14.7197 4.47838 14.7616 4.57782 15.1324C4.70232 15.5967 4.73288 16.0076 4.75888 17.5699C4.78328 19.0364 4.77376 19.9706 4.73148 20.2534C4.63671 20.8878 4.36303 21.3952 3.94645 21.7089C3.75985 21.8494 3.73586 21.8574 2.47032 22.1968C1.23184 22.5289 1.18188 22.5453 1.13027 22.6346C1.03987 22.7912 1.07266 22.9498 1.21623 23.05C1.5533 23.2852 2.9977 23.4345 5.03586 23.4447C7.14407 23.4552 8.68854 23.2633 8.88981 22.9657C8.91855 22.9232 8.93858 22.8318 8.9343 22.7626C8.9232 22.5828 8.79769 22.5275 7.93118 22.3208C6.1042 21.8848 5.65167 21.5861 5.39745 20.6483C5.25565 20.1251 5.24157 19.6535 5.30403 17.5216C5.37172 15.2098 5.42314 14.8945 5.78533 14.5697C5.87301 14.4911 6.26424 14.2563 6.6672 14.0406C8.02596 13.3131 8.59676 12.9063 9.15388 12.2682C9.70035 11.6423 10.0407 10.7551 10.0961 9.81176C10.1708 8.54118 9.58526 6.25006 8.50982 3.60477C8.37955 3.28444 8.26971 3.02116 8.26572 3.01972C8.26174 3.01829 6.8394 3.01422 5.10498 3.01062C3.37058 3.00705 1.93301 3.00225 1.91041 3.00001C1.88776 2.99775 1.75664 3.26869 1.61898 3.6021Z" fill="#797371"/>
<path fill-rule="evenodd" clip-rule="evenodd" d="M10.5602 3.33664C10.4578 5.58647 10.574 7.649 10.8718 8.86841C11.1963 10.1967 11.8376 11.1077 12.8629 11.6963C13.6029 12.1211 14.3907 12.3482 15.8426 12.555C16.3004 12.6202 16.73 12.7066 16.8337 12.7543C17.0026 12.832 17.0351 12.8649 17.2544 13.1799C17.529 13.5745 17.6971 13.9507 18.2515 15.4116C18.7718 16.7828 19.0797 17.6649 19.1359 17.9453C19.2619 18.5742 19.1765 19.1443 18.891 19.5808C18.7631 19.7763 18.7433 19.7919 17.6678 20.5404C16.6154 21.2729 16.574 21.3052 16.5557 21.4067C16.5238 21.5847 16.6084 21.7228 16.7775 21.7684C17.1743 21.8753 18.5837 21.5258 20.5046 20.8441C22.4914 20.139 23.8792 19.4346 23.9676 19.0865C23.9802 19.0367 23.9681 18.9439 23.9406 18.8803C23.8692 18.7149 23.7323 18.7054 22.8471 18.8049C20.9805 19.0144 20.4535 18.8869 19.8963 18.0909C19.5854 17.6468 19.4122 17.2079 18.7479 15.1812C18.0275 12.9835 17.9689 12.6695 18.1995 12.2411C18.2553 12.1374 18.5437 11.7838 18.8496 11.4442C19.8811 10.299 20.2801 9.7227 20.5878 8.93346C20.8896 8.15932 20.9088 7.20929 20.641 6.30305C20.2803 5.08246 18.9524 3.12573 17.0435 1.00199C16.8123 0.744838 16.6197 0.534418 16.6155 0.534419C16.6112 0.53442 15.2718 1.01301 13.639 1.59787C12.0062 2.18277 10.6522 2.66584 10.6302 2.6714C10.6081 2.67695 10.5767 2.9763 10.5602 3.33664Z" fill="#797371"/>
</svg>
